<?xml version="1.0" standalone="no"?>
<!DOCTYPE svg PUBLIC "-//W3C//DTD SVG 20010904//EN"
 "http://www.w3.org/TR/2001/REC-SVG-20010904/DTD/svg10.dtd">
<svg version="1.0" xmlns="http://www.w3.org/2000/svg"
 width="1076.000000pt" height="1076.000000pt" viewBox="0 0 1076.000000 1076.000000"
 preserveAspectRatio="xMidYMid meet">
<metadata>
Created by potrace 1.14, written by Peter Selinger 2001-2017
</metadata>
<g transform="translate(0.000000,1076.000000) scale(0.100000,-0.100000)"
fill="#000000" stroke="none">
<path d="M0 8541 l0 -2219 23 5 22 6 -22 -22 c-27 -25 -29 -46 -8 -67 20 -20
20 -48 0 -40 -8 3 -15 0 -15 -5 0 -7 11 -9 27 -6 31 6 53 -1 53 -15 0 -6 -12
-8 -27 -5 -15 3 -33 3 -40 0 -11 -4 -13 -552 -13 -3089 l0 -3084 1385 0 c837
0 1385 4 1385 9 0 5 15 13 33 16 17 4 49 16 69 26 40 21 78 25 78 9 0 -18 18
-10 47 21 15 17 37 41 49 53 12 11 33 38 49 59 15 20 34 37 41 37 8 0 14 4 14
9 0 15 91 80 105 74 8 -2 24 4 35 15 12 11 34 22 48 25 15 3 47 11 72 17 25 6
71 14 104 19 39 5 62 13 68 25 6 10 23 30 39 45 16 16 29 33 29 40 0 6 5 11
11 11 7 0 9 9 5 23 -5 22 5 63 31 124 7 17 16 46 20 65 5 29 59 144 73 158 3
3 14 22 25 42 22 43 145 182 225 256 30 27 87 80 127 116 40 36 79 66 87 66
15 0 56 -62 56 -85 0 -8 6 -29 14 -47 8 -18 26 -60 39 -93 19 -44 28 -55 33
-42 10 26 -16 149 -40 186 -5 8 -10 29 -12 47 -2 18 -8 42 -13 53 -6 11 -11
33 -11 50 0 16 -7 60 -16 97 -13 59 -20 204 -11 259 2 11 7 40 11 65 16 94 63
212 125 310 23 36 44 72 47 80 4 8 26 57 50 107 24 51 44 99 44 107 0 8 4 18
10 21 6 3 10 15 10 26 0 11 14 34 31 51 17 17 35 43 41 57 l10 26 19 -24 c18
-22 23 -23 41 -12 19 12 23 10 40 -10 l18 -24 25 28 c14 16 23 32 20 36 -2 5
-9 21 -15 37 l-12 29 -19 -24 -20 -24 -19 21 c-11 12 -20 27 -20 34 0 8 -5 6
-11 -5 -14 -24 -24 -21 -37 8 -15 32 -15 45 -2 45 6 0 10 -12 10 -27 1 -25 2
-26 14 -11 7 10 16 15 19 12 14 -14 18 63 4 89 -15 28 -12 77 4 77 5 0 12 -13
16 -30 8 -45 37 -39 52 10 7 22 9 45 6 50 -3 6 -1 10 4 10 6 0 11 6 11 14 0 7
7 19 15 26 10 9 15 9 15 1 0 -16 20 -14 26 4 3 8 -1 22 -10 31 -18 18 -14 49
10 74 13 13 16 13 24 0 5 -8 10 -31 10 -50 0 -47 11 -110 19 -110 3 0 22 25
41 56 19 30 45 67 57 82 32 40 47 18 51 -76 4 -101 9 -115 29 -78 8 15 30 48
49 73 19 24 34 50 34 56 0 7 9 18 20 25 24 15 30 3 51 -90 l12 -58 34 38 c65
73 81 118 104 294 11 90 21 176 21 191 1 39 -20 51 -42 25 -17 -22 -40 -18
-40 8 0 8 9 14 20 14 11 0 20 6 20 13 0 9 -15 13 -50 13 -30 0 -56 6 -67 16
-25 21 -64 29 -155 32 -46 2 -84 9 -94 16 -13 11 -19 11 -36 1 -12 -7 -24 -9
-31 -3 -15 11 -88 32 -111 32 -10 0 -15 -4 -11 -9 10 -18 -144 -34 -199 -21
-34 7 -39 6 -44 -12 -7 -28 -22 -2 -22 40 0 44 24 89 52 97 13 4 32 15 43 24
30 24 63 41 80 41 8 0 25 16 37 35 13 19 31 37 41 41 9 3 17 9 17 13 0 7 43
31 55 31 3 0 5 -7 5 -15 0 -8 -5 -15 -10 -15 -6 0 -15 -10 -21 -22 -8 -17 -76
-77 -107 -94 -1 0 0 -9 4 -18 8 -20 37 -21 54 -1 16 19 46 19 54 0 8 -23 27
-18 62 16 l31 30 21 -25 c11 -14 24 -26 28 -26 9 1 84 67 84 74 0 8 40 91 58
120 24 40 37 33 34 -21 -3 -64 -21 -96 -59 -108 -24 -6 -33 -15 -33 -30 0 -26
18 -45 42 -45 25 0 98 68 98 92 0 11 8 40 18 66 20 50 40 106 49 134 7 25 -24
34 -46 14 -44 -40 -57 8 -17 62 15 21 25 52 29 92 8 70 59 169 125 239 47 50
77 51 107 4 10 -16 43 -51 73 -79 l56 -51 4 -69 c5 -86 -5 -97 -86 -99 -46 0
-57 -4 -60 -19 -4 -19 24 -56 43 -56 41 0 111 -109 102 -158 -3 -17 1 -26 18
-32 23 -9 38 -42 50 -112 6 -29 1 -50 -23 -100 -26 -54 -72 -199 -72 -227 0
-6 12 -11 28 -13 19 -2 28 -9 30 -25 3 -17 -3 -24 -28 -30 l-31 -8 25 -24 c24
-23 25 -23 44 -5 25 25 38 63 53 159 9 60 18 85 36 101 16 15 23 32 23 57 0
20 5 39 11 42 5 4 21 31 35 60 26 54 58 95 74 95 6 0 10 7 10 15 0 26 -25 16
-65 -25 -21 -22 -42 -40 -46 -40 -8 0 -34 103 -44 171 -6 37 -4 47 9 52 9 4
16 13 16 22 0 14 16 20 52 17 36 -3 28 61 -19 150 -36 68 -24 83 69 92 40 3
118 11 174 16 55 5 121 16 145 25 87 33 118 48 114 56 -3 4 13 10 34 14 22 3
47 13 58 21 16 12 16 15 3 24 -22 14 -50 12 -50 -4 0 -12 -71 -46 -97 -46 -6
0 -13 -3 -15 -7 -6 -15 -70 -43 -96 -43 -15 0 -44 -5 -65 -11 -48 -13 -337 6
-384 26 -40 17 -122 77 -123 89 0 6 -17 30 -38 55 -22 25 -67 87 -102 138 -34
51 -73 99 -86 108 -15 9 -24 25 -24 40 0 18 -5 25 -19 25 -14 0 -18 5 -14 19
3 11 -5 28 -20 42 -13 13 -27 35 -30 49 -11 49 -38 145 -47 165 -5 11 -13 36
-19 55 -6 19 -20 64 -31 99 -30 92 -42 200 -30 279 14 93 26 140 40 157 7 8
13 35 15 60 1 25 4 47 6 49 2 2 24 20 47 40 l44 36 106 0 c112 0 144 8 120 28
-15 12 -92 30 -123 29 -65 -2 -88 4 -113 33 -15 17 -32 30 -39 30 -13 0 -16
30 -13 144 1 51 7 68 38 114 43 62 44 65 66 115 9 21 16 49 16 62 0 13 5 27
10 30 6 4 8 10 5 15 -3 5 6 25 20 46 14 20 25 41 25 45 0 5 7 9 16 9 9 0 24
10 34 22 16 20 28 23 124 26 94 2 105 1 99 -13 -4 -13 6 -11 46 10 28 15 51
31 51 36 0 4 16 16 36 25 30 14 42 15 68 6 39 -14 76 -16 76 -3 0 14 30 23
105 31 39 5 104 13 145 20 135 21 264 14 282 -14 5 -8 8 -7 8 2 0 10 8 9 33
-5 49 -27 66 -44 61 -58 -3 -7 3 -15 14 -17 23 -6 72 -107 72 -148 0 -17 3
-30 8 -30 4 0 8 -55 9 -122 2 -99 7 -129 23 -160 22 -42 26 -83 9 -93 -7 -5
-4 -15 6 -32 12 -18 15 -38 11 -72 -3 -25 -6 -55 -5 -66 0 -11 2 -67 3 -125 2
-58 6 -112 10 -120 3 -8 2 -37 -3 -64 -6 -31 -5 -59 1 -77 5 -16 8 -76 5 -134
-3 -60 -1 -108 5 -111 5 -3 4 -12 -3 -20 -6 -7 -9 -20 -6 -27 8 -20 -21 -189
-37 -217 -8 -14 -20 -54 -27 -89 -12 -58 -12 -64 5 -76 17 -13 16 -17 -14 -79
-18 -36 -36 -66 -40 -66 -4 0 -13 -13 -20 -29 -6 -16 -27 -46 -46 -66 -19 -21
-34 -44 -34 -51 0 -7 -10 -18 -22 -25 -11 -6 -31 -22 -44 -36 -19 -20 -26 -23
-43 -13 -17 8 -21 8 -21 -3 0 -8 14 -17 31 -21 32 -6 79 1 79 13 0 4 15 15 33
26 41 24 146 103 170 127 10 10 21 18 25 18 10 0 34 -16 31 -21 -7 -13 15
-120 27 -130 20 -16 72 -3 174 44 135 63 207 59 308 -15 53 -40 146 -88 169
-88 7 0 41 -13 75 -30 39 -19 77 -30 104 -30 53 0 93 -31 102 -79 13 -60 34
-61 86 -6 50 53 58 84 29 124 -16 23 -15 25 6 43 26 20 81 23 149 8 53 -13
118 4 134 33 11 22 15 22 232 -7 75 -10 116 -20 135 -34 15 -11 50 -31 77 -45
64 -32 154 -103 154 -121 0 -8 -7 -16 -15 -20 -20 -7 -19 -25 1 -33 11 -4 22
1 31 13 14 19 14 19 29 0 8 -11 14 -35 14 -53 0 -26 5 -34 25 -39 31 -8 31 -9
0 -42 -22 -23 -27 -25 -35 -12 -6 8 -8 27 -6 42 5 35 -25 47 -60 23 -32 -21
-44 -12 -44 31 0 37 -22 56 -43 35 -19 -19 -38 -12 -48 18 -12 35 -33 45 -49
25 -17 -19 -39 -18 -47 4 -13 37 -23 42 -48 26 -22 -15 -26 -14 -46 5 l-23 21
-22 -21 c-22 -21 -24 -21 -49 -5 -27 18 -62 15 -50 -4 9 -15 -25 -25 -45 -12
-23 14 -30 6 -30 -31 0 -29 -1 -29 -43 -23 -47 7 -62 -1 -69 -39 -2 -15 -13
-21 -43 -25 -38 -5 -40 -7 -40 -40 0 -33 -2 -35 -29 -33 -37 3 -56 -12 -56
-43 0 -28 -14 -37 -55 -38 -27 -1 -30 -5 -33 -34 -3 -32 -4 -33 -45 -30 l-42
3 -3 -40 c-4 -52 -15 -62 -47 -41 -21 14 -25 23 -23 58 4 50 -9 56 -48 23
l-29 -25 -20 35 c-22 39 -62 57 -76 34 -4 -8 -14 -23 -22 -33 -14 -19 -14 -18
-43 2 -16 11 -39 23 -51 27 -20 6 -21 3 -16 -29 5 -32 3 -36 -16 -36 -12 0
-24 7 -27 15 -10 24 -53 19 -63 -7 -5 -13 -7 -26 -4 -30 6 -11 -25 -10 -32 1
-3 5 2 17 11 26 19 19 20 18 -29 39 -27 11 -42 26 -52 50 -10 23 -24 38 -40
42 -27 7 -30 6 -90 -31 l-40 -24 33 -7 c45 -9 48 -17 56 -125 4 -60 21 -89 51
-89 15 0 26 -7 30 -20 8 -24 -2 -77 -16 -86 -18 -11 -39 18 -39 55 -1 36 -1
35 -30 -27 -16 -34 -32 -62 -35 -62 -3 0 -9 10 -14 22 -8 21 -10 20 -36 -20
-18 -28 -35 -42 -50 -42 -12 0 -32 -11 -45 -25 -17 -18 -34 -25 -59 -25 -28 0
-39 -5 -46 -22 -16 -35 -34 -33 -76 11 -40 42 -49 46 -27 12 9 -15 9 -23 -1
-35 -18 -21 -48 -20 -55 2 -3 9 -14 22 -23 28 -15 9 -18 7 -19 -13 -2 -27 -21
-53 -39 -53 -7 0 -18 14 -24 30 -13 38 -25 38 -48 0 -22 -38 -41 -38 -54 0 -6
16 -14 30 -17 30 -4 0 -18 -14 -32 -30 -29 -36 -56 -33 -66 6 -4 13 -14 28
-23 33 -13 8 -19 3 -31 -22 -19 -39 -51 -47 -65 -15 -14 31 -47 35 -60 7 -13
-29 -46 -49 -52 -31 -14 37 -63 50 -63 17 0 -8 -8 -21 -17 -30 -16 -16 -18
-16 -35 5 -9 12 -22 19 -27 15 -16 -9 -39 -64 -51 -120 -7 -27 -15 -59 -20
-70 -19 -49 -54 -185 -62 -244 -8 -52 -6 -66 6 -80 9 -10 16 -34 16 -54 0 -51
26 -49 41 2 8 29 20 43 41 52 17 7 31 22 35 38 3 14 20 40 37 56 17 17 39 45
48 63 20 37 33 35 41 -5 3 -16 12 -53 21 -83 10 -30 21 -72 25 -93 5 -21 12
-41 16 -45 10 -10 35 28 35 56 0 14 14 37 35 56 19 19 35 43 35 54 0 11 10 29
23 39 12 10 30 31 40 46 l18 28 30 -37 c16 -20 29 -44 29 -53 0 -9 9 -27 20
-41 11 -14 20 -35 20 -47 1 -72 35 -71 45 2 4 38 12 58 25 65 11 6 20 27 25
57 4 27 14 53 24 59 10 7 26 31 36 53 21 47 32 51 45 17 5 -13 20 -35 34 -49
14 -15 26 -32 26 -38 0 -7 12 -25 27 -41 14 -15 29 -44 32 -65 10 -58 35 -51
39 11 2 35 11 58 28 79 17 20 24 41 24 69 0 29 6 45 22 57 13 11 23 34 27 62
4 31 11 45 24 47 13 3 17 -3 17 -23 0 -16 11 -37 29 -53 16 -15 36 -41 45 -59
9 -17 24 -38 35 -45 10 -7 24 -33 30 -56 20 -71 52 -50 49 32 -1 27 4 43 17
52 12 9 20 31 23 63 3 32 11 56 23 67 14 13 19 31 19 74 0 43 4 59 15 64 16 6
28 -15 40 -67 4 -19 15 -31 34 -38 19 -7 34 -23 46 -49 11 -23 26 -41 40 -44
15 -4 28 -20 39 -46 9 -24 22 -40 32 -40 14 0 16 8 10 54 -5 45 -3 56 14 71
15 14 20 31 20 69 0 40 4 54 20 64 15 9 20 23 20 56 0 47 17 70 47 64 12 -2
19 -14 21 -33 3 -20 19 -45 48 -73 41 -39 49 -42 97 -42 29 1 89 -1 134 -3
l82 -5 0 42 c-1 87 2 119 12 138 8 14 6 25 -5 43 -9 14 -16 31 -16 40 0 22 27
30 46 14 11 -9 50 -15 108 -17 50 -1 107 -4 126 -5 32 -2 35 0 33 23 -1 14 -4
75 -7 137 -5 123 3 139 51 108 13 -9 34 -15 46 -13 12 1 37 -4 54 -11 18 -7
43 -11 54 -8 13 3 39 -3 62 -14 45 -24 71 -13 50 20 -12 19 -20 167 -10 177 3
4 20 -5 37 -20 17 -14 38 -26 46 -26 8 0 32 -11 52 -25 20 -14 44 -25 54 -25
10 0 34 -8 54 -17 28 -14 38 -15 41 -5 7 20 20 14 90 -40 63 -48 70 -51 117
-48 90 6 183 0 223 -14 41 -14 157 -92 184 -123 8 -10 30 -29 47 -42 17 -13
43 -44 58 -68 25 -43 27 -44 65 -38 38 7 59 2 134 -30 61 -26 103 -35 171 -36
90 -2 133 -21 216 -97 l68 -61 79 6 c68 5 88 3 134 -16 45 -19 63 -33 96 -81
23 -32 44 -72 47 -89 9 -41 29 -56 78 -56 23 -1 54 -8 71 -16 30 -14 69 -76
78 -121 2 -13 5 1722 6 3855 l1 3877 -2339 0 c-2070 0 -2340 -2 -2345 -15 -3
-8 -10 -15 -16 -15 -5 0 -10 7 -10 15 0 13 -343 15 -3025 15 l-3025 0 0 -2219z
m8090 2190 c0 -5 -7 -11 -14 -14 -10 -4 -13 -1 -9 9 6 15 23 19 23 5z m-1253
-33 c-3 -8 -6 -5 -6 6 -1 11 2 17 5 13 3 -3 4 -12 1 -19z m-802 2 c-3 -5 -10
-10 -16 -10 -5 0 -9 5 -9 10 0 6 7 10 16 10 8 0 12 -4 9 -10z m985 -10 c0 -13
-11 -13 -30 0 -12 8 -11 10 8 10 12 0 22 -4 22 -10z m271 -13 c-13 -13 -26 -3
-16 12 3 6 11 8 17 5 6 -4 6 -10 -1 -17z m-2851 -11 c0 -14 -4 -27 -9 -31 -12
-7 -25 31 -16 45 11 18 25 10 25 -14z m3610 14 c0 -5 -5 -10 -11 -10 -5 0 -7
5 -4 10 3 6 8 10 11 10 2 0 4 -4 4 -10z m-3159 -73 c-14 -15 -21 -17 -21 -8 0
21 33 56 38 41 3 -7 -5 -22 -17 -33z m2369 8 c0 -8 -7 -15 -15 -15 -16 0 -20
12 -8 23 11 12 23 8 23 -8z m-2776 -41 c10 -26 -5 -39 -21 -19 -7 11 -13 22
-13 27 0 15 28 8 34 -8z m3491 -24 c3 -6 -1 -13 -10 -16 -10 -4 -13 -13 -10
-25 4 -13 1 -19 -9 -19 -22 0 -28 16 -11 30 8 7 15 19 15 26 0 16 16 19 25 4z
m74 -35 c-12 -19 -25 -35 -30 -35 -5 0 1 16 13 35 30 45 43 45 17 0z m-874 -5
c8 -12 14 -42 21 -100 7 -53 -18 -108 -54 -121 -18 -7 -29 -3 -49 17 -22 22
-25 31 -19 71 8 62 27 123 36 118 5 -3 10 2 14 10 6 17 42 20 51 5z m215 0 c0
-5 -4 -10 -9 -10 -6 0 -13 5 -16 10 -3 6 1 10 9 10 9 0 16 -4 16 -10z m400
-27 c20 -25 22 -36 17 -103 -8 -104 -34 -170 -66 -170 -35 0 -17 -60 35 -115
32 -34 54 -87 54 -131 0 -12 9 -52 21 -89 18 -59 19 -73 8 -123 -7 -31 -21
-73 -33 -92 -17 -28 -21 -53 -22 -130 -2 -139 -14 -160 -113 -195 -53 -19 -58
-23 -92 -90 -34 -67 -36 -73 -30 -139 4 -38 12 -71 17 -73 35 -12 43 -30 48
-114 l6 -87 -31 -30 c-31 -30 -31 -32 -20 -76 6 -25 11 -72 11 -105 0 -79 6
-92 36 -85 13 4 31 1 39 -6 12 -10 23 -8 57 10 58 29 137 108 146 145 5 20 18
35 38 43 16 8 37 27 46 43 22 38 35 37 55 -6 23 -48 7 -126 -41 -199 -20 -29
-36 -56 -36 -60 0 -3 14 -6 30 -6 40 0 45 -16 54 -155 4 -60 11 -114 15 -118
5 -5 22 1 39 13 52 39 120 5 142 -71 14 -48 12 -157 -3 -201 -14 -38 -55 -98
-68 -98 -4 0 -3 16 3 36 12 47 5 138 -15 186 -27 64 -90 63 -133 -2 -22 -33
-24 -43 -14 -55 17 -20 27 -19 58 5 25 21 26 21 45 1 16 -15 18 -27 13 -56
-10 -49 -27 -55 -76 -26 -53 31 -70 35 -88 18 -10 -10 -24 -17 -30 -17 -7 0
-12 -6 -12 -14 0 -7 -7 -19 -15 -26 -17 -14 -16 -57 1 -71 7 -6 21 0 40 16 33
29 44 31 44 10 0 -9 -10 -20 -23 -26 -26 -12 -67 -68 -67 -92 0 -10 7 -20 17
-24 20 -8 83 57 83 87 0 24 -1 24 43 5 20 -8 43 -12 51 -9 12 4 14 -5 13 -50
-2 -56 -15 -76 -57 -91 -8 -2 -20 -15 -25 -27 -6 -13 -21 -25 -35 -26 -13 -2
-40 -16 -60 -30 -61 -46 -105 -65 -138 -57 -43 9 -70 36 -72 70 -3 49 -1 55
23 55 48 1 104 132 65 156 -13 8 -51 -34 -71 -78 -13 -31 -19 -33 -47 -16 -26
17 -43 0 -45 -44 -1 -18 -5 -41 -9 -51 -11 -24 -55 -44 -86 -39 -14 2 -40 3
-57 3 -36 -1 -42 12 -18 35 8 9 15 11 15 5 0 -13 39 -14 58 -3 17 11 33 70 21
77 -5 4 -9 20 -9 37 0 25 3 29 18 23 43 -18 61 -17 86 8 35 35 66 150 44 163
-4 3 -8 16 -8 28 0 35 -37 76 -68 76 -15 0 -40 -11 -56 -25 -16 -14 -32 -25
-36 -25 -4 0 -11 32 -16 72 -5 39 -14 73 -20 75 -18 6 -33 -42 -35 -111 -2
-66 -16 -95 -39 -81 -9 6 -7 127 4 210 0 6 -17 10 -39 11 -22 1 -47 4 -56 8
-20 9 -47 -16 -55 -50 -9 -36 8 -87 33 -99 23 -10 35 -38 26 -61 -8 -22 -17
-17 -38 22 -17 32 -22 35 -51 30 -27 -6 -32 -3 -37 16 -4 12 -2 27 2 32 8 11
5 97 -4 124 -2 6 -20 12 -39 12 -30 0 -36 4 -50 40 -18 44 -21 97 -7 119 8 12
17 11 59 -7 58 -25 115 -28 189 -8 77 21 105 46 142 126 27 58 35 90 41 173 8
98 8 103 -13 119 -12 10 -32 18 -43 18 -14 0 -24 8 -27 22 -7 27 -2 34 15 20
9 -7 22 -6 46 4 58 24 75 116 31 173 -11 13 -19 19 -19 12 0 -6 -8 -11 -17
-11 -14 0 -15 2 -4 9 10 7 12 22 6 67 -8 68 -18 84 -51 84 -16 0 -27 8 -33 23
-5 12 -17 30 -28 39 -18 17 -21 17 -53 0 -21 -10 -34 -24 -32 -32 2 -8 15 -60
29 -114 35 -140 26 -205 -30 -206 -23 0 -35 33 -54 157 -12 81 -14 112 -5 140
6 20 9 40 6 45 -3 5 -31 22 -63 38 l-58 29 -2 68 c-1 37 -4 82 -7 99 -3 17 0
50 6 74 15 55 5 150 -16 150 -21 0 -17 18 6 30 24 13 26 48 3 65 -20 15 -24
32 -23 113 0 74 23 133 69 181 17 17 31 29 31 26 0 -7 61 37 100 71 14 12 84
78 155 147 148 144 174 167 187 167 6 0 21 9 35 20 38 29 87 26 113 -7z
m-7216 -20 c-9 -37 -24 -53 -24 -26 0 28 10 53 21 53 5 0 6 -12 3 -27z m8176
-19 c0 -8 -7 -14 -15 -14 -10 0 -15 10 -15 26 0 22 2 25 15 14 8 -7 15 -19 15
-26z m-7260 -64 c-33 -26 -60 -26 -29 0 13 10 31 19 39 19 10 1 6 -6 -10 -19z
m4200 6 c0 -3 -4 -8 -10 -11 -5 -3 -10 -1 -10 4 0 6 5 11 10 11 6 0 10 -2 10
-4z m-1180 -9 c0 -1 4 -17 9 -35 10 -33 -6 -63 -32 -61 -8 0 -8 2 1 6 10 4 10
8 1 19 -6 8 -8 14 -3 14 5 0 -2 7 -14 16 -27 18 -28 31 -4 37 21 6 42 8 42 4z
m-390 -41 c6 -8 10 -25 8 -38 -3 -20 -9 -23 -43 -23 -46 0 -58 24 -29 56 20
23 47 25 64 5z m-2730 -20 c0 -2 -7 -7 -16 -10 -8 -3 -12 -2 -9 4 6 10 25 14
25 6z m4255 -6 c3 -5 1 -10 -4 -10 -6 0 -11 5 -11 10 0 6 2 10 4 10 3 0 8 -4
11 -10z m-1291 -29 c8 -13 -20 -33 -40 -29 -17 3 -17 4 0 21 19 19 32 22 40 8z
m681 -31 c-3 -5 -10 -10 -16 -10 -5 0 -9 5 -9 10 0 6 7 10 16 10 8 0 12 -4 9
-10z m2070 -50 c10 -11 13 -20 7 -20 -7 0 -12 4 -12 9 0 5 -7 8 -16 7 -9 0
-19 5 -21 12 -7 19 22 14 42 -8z m2800 -10 c3 -5 1 -10 -4 -10 -6 0 -11 5 -11
10 0 6 2 10 4 10 3 0 8 -4 11 -10z m-6082 -43 c5 -20 6 -49 2 -64 -5 -23 -8
-24 -21 -11 -8 8 -17 38 -21 67 -5 48 -4 53 13 49 12 -2 21 -16 27 -41z m757
33 c0 -5 -4 -10 -10 -10 -5 0 -10 5 -10 10 0 6 5 10 10 10 6 0 10 -4 10 -10z
m-686 -35 c-6 -32 -4 -35 17 -36 123 -5 160 -9 190 -22 31 -13 36 -19 37 -50
1 -39 -30 -89 -46 -72 -5 6 -14 29 -21 53 -11 38 -14 42 -28 31 -13 -11 -18
-10 -30 6 -14 20 -14 20 -31 -1 -25 -31 -46 -35 -96 -18 -42 14 -45 18 -42 45
1 16 6 32 9 36 4 3 7 16 7 29 0 20 11 31 33 33 4 1 5 -15 1 -34z m349 -34
c-34 -29 -40 -52 -23 -95 8 -22 7 -26 -9 -26 -18 0 -41 37 -41 68 0 23 60 80
85 81 17 0 15 -4 -12 -28z m74 -20 c5 -34 8 -36 63 -36 27 0 55 -6 62 -12 15
-16 50 -17 66 -1 9 9 16 8 29 -4 21 -18 102 -40 151 -41 28 0 32 -4 32 -29 0
-33 -31 -51 -66 -38 -12 5 -59 11 -105 15 -87 7 -153 31 -144 52 2 7 1 13 -4
13 -5 0 -11 -9 -14 -20 -8 -30 -34 -35 -74 -14 -34 19 -35 20 -29 68 3 31 1
55 -6 64 -10 11 -8 13 12 10 16 -2 24 -11 27 -27z m-725 -11 c20 0 38 4 40 8
2 5 18 3 37 -5 l33 -14 -22 -24 c-41 -44 -24 -52 107 -52 125 0 216 -19 227
-49 3 -8 16 -19 28 -24 13 -6 30 -15 40 -22 13 -10 23 -7 54 17 42 32 90 35
153 9 35 -15 51 -16 191 -16 l75 0 42 -47 c41 -44 57 -91 31 -91 -10 0 -9 -3
1 -9 8 -5 10 -14 6 -21 -5 -9 -4 -11 3 -6 17 10 14 -13 -7 -60 -25 -55 -81
-110 -122 -118 -18 -3 -41 -14 -52 -24 -24 -21 -139 -22 -186 -1 -34 15 -43
29 -70 111 -15 45 -18 69 -12 114 5 32 6 66 3 76 -5 19 -27 24 -37 8 -3 -5 -1
-10 5 -10 6 0 10 -6 9 -12 -2 -7 1 -28 5 -45 4 -18 4 -38 0 -45 -4 -7 -9 -24
-10 -38 -6 -48 -14 -70 -29 -70 -8 0 -15 -6 -15 -14 0 -23 -47 -46 -95 -46
-53 0 -81 13 -109 48 -16 20 -25 23 -52 19 -33 -6 -56 6 -32 16 9 4 3 14 -17
32 -47 40 -54 45 -62 45 -11 0 -52 88 -60 128 -4 21 -9 29 -13 21 -5 -7 -18
-13 -30 -14 -12 -1 -27 -12 -33 -26 -17 -33 -42 -32 -40 2 1 23 -3 27 -35 33
-20 3 -51 6 -69 6 -17 0 -35 5 -38 10 -3 6 -17 10 -30 10 -12 0 -25 7 -29 15
-6 17 -42 20 -51 5 -9 -14 -42 -12 -48 3 -3 7 -3 25 0 40 4 22 2 27 -15 27
-13 0 -22 -9 -26 -25 -7 -29 -46 -35 -66 -10 -21 25 -35 1 -16 -26 24 -35 20
-47 -21 -55 -37 -7 -37 -7 -15 -22 27 -18 28 -39 2 -47 -21 -7 -49 5 -69 29
-11 13 -6 28 26 87 32 61 44 74 81 90 24 11 55 19 68 19 14 0 36 7 50 16 23
15 31 15 110 0 l86 -17 24 22 c14 13 22 29 19 37 -9 24 6 34 24 18 10 -9 34
-16 53 -16z m3450 -12 c-7 -7 -12 -8 -12 -2 0 14 12 26 19 19 2 -3 -1 -11 -7
-17z m108 12 c0 -5 -2 -10 -4 -10 -3 0 -8 5 -11 10 -3 6 -1 10 4 10 6 0 11 -4
11 -10z m-6845 -59 c-3 -6 -11 -11 -17 -11 -6 0 -6 6 2 15 14 17 26 13 15 -4z
m5240 -36 c0 -10 -5 -20 -11 -22 -13 -4 -27 24 -18 38 9 15 29 4 29 -16z
m2462 10 c27 -19 93 -157 93 -195 0 -36 -40 -86 -63 -77 -21 8 -65 78 -90 142
-20 54 -17 97 10 127 20 22 23 22 50 3z m-3248 -33 c7 -13 6 -23 -1 -30 -19
-19 -28 -14 -28 18 0 34 14 39 29 12z m751 -7 c0 -8 -7 -15 -15 -15 -16 0 -20
12 -8 23 11 12 23 8 23 -8z m3000 -81 c0 -2 -11 2 -25 8 -14 6 -25 15 -25 20
0 5 11 1 25 -8 14 -9 25 -18 25 -20z m-3074 -30 c-17 -17 -19 -12 -9 25 5 20
7 21 15 7 6 -11 4 -21 -6 -32z m-2036 12 c0 -30 -15 -42 -62 -51 -46 -9 -50
-31 -8 -40 17 -4 30 -11 30 -16 0 -14 21 -10 65 11 47 22 84 25 108 8 15 -12
13 -17 -14 -56 -16 -24 -30 -54 -31 -68 -2 -21 -18 -36 -18 -16 0 4 -15 6 -34
4 -18 -2 -43 1 -54 7 -16 8 -21 7 -26 -6 -5 -13 -9 -14 -19 -4 -9 10 -8 15 5
25 16 12 16 14 -3 34 -11 12 -30 22 -43 22 -13 0 -42 16 -65 36 -35 31 -41 42
-41 75 l0 39 25 -16 c14 -9 25 -23 25 -30 0 -23 34 -16 45 9 11 23 68 57 98
57 11 0 17 -8 17 -24z m1620 20 c0 -2 -7 -7 -16 -10 -8 -3 -12 -2 -9 4 6 10
25 14 25 6z m-297 -81 c-3 -9 -8 -14 -10 -11 -3 3 -2 9 2 15 9 16 15 13 8 -4z
m117 -11 c0 -8 -4 -12 -10 -9 -5 3 -10 10 -10 16 0 5 5 9 10 9 6 0 10 -7 10
-16z m615 -4 c3 -5 -1 -10 -9 -10 -9 0 -16 5 -16 10 0 6 4 10 9 10 6 0 13 -4
16 -10z m1295 0 c0 -5 -5 -10 -11 -10 -5 0 -7 5 -4 10 3 6 8 10 11 10 2 0 4
-4 4 -10z m-3040 -55 c0 -8 -7 -15 -16 -15 -14 0 -14 3 -4 15 7 8 14 15 16 15
2 0 4 -7 4 -15z m-65 -5 c18 -8 19 -9 1 -9 -12 -1 -16 -6 -12 -16 6 -18 -30
-45 -61 -45 -28 0 -30 22 -5 55 18 25 42 30 77 15z m1298 -4 c18 -14 18 -14
-1 -20 -32 -11 -61 2 -62 27 0 12 44 7 63 -7z m412 4 c3 -5 4 -10 1 -10 -2 0
-11 -2 -19 -5 -8 -4 -14 0 -14 10 0 17 22 21 32 5z m1330 -10 c-3 -5 -10 -10
-16 -10 -5 0 -9 5 -9 10 0 6 7 10 16 10 8 0 12 -4 9 -10z m172 -16 c-3 -3 -12
-4 -19 -1 -8 3 -5 6 6 6 11 1 17 -2 13 -5z m243 -65 c0 -15 -4 -19 -16 -15 -9
3 -18 6 -20 6 -2 0 -4 7 -4 15 0 8 9 15 20 15 14 0 20 -7 20 -21z m-3307 -15
c11 -11 -5 -34 -23 -34 -22 0 -34 15 -25 30 7 11 38 14 48 4z m-745 -22 c2 -7
-6 -12 -17 -12 -21 0 -27 11 -14 24 9 9 26 2 31 -12z m505 6 c3 -10 8 -10 18
-2 19 15 69 16 85 3 17 -14 18 -90 2 -111 -17 -20 -74 -42 -92 -35 -8 3 -16
16 -18 28 -4 30 -28 37 -28 9 0 -12 4 -30 10 -40 7 -13 6 -21 -5 -30 -22 -18
-42 -6 -60 36 -14 34 -14 39 1 56 10 10 23 18 29 18 7 0 18 7 25 15 9 11 22
14 43 9 25 -5 29 -3 24 9 -3 9 -1 18 6 21 7 2 5 5 -5 5 -9 1 -19 -5 -21 -11
-4 -10 -8 -10 -15 1 -5 7 -15 11 -21 7 -7 -5 -9 -1 -5 8 7 19 21 21 27 4z
m3447 -2 c0 -3 -4 -8 -10 -11 -5 -3 -10 -1 -10 4 0 6 5 11 10 11 6 0 10 -2 10
-4z m-2050 -15 c0 -5 -7 -14 -15 -21 -16 -14 -18 -10 -9 14 6 17 24 22 24 7z
m-332 -34 c4 -21 -21 -22 -37 -3 -9 11 -9 15 1 19 20 8 33 2 36 -16z m536 -17
c33 -12 33 -30 1 -60 -23 -22 -26 -22 -43 -7 -34 31 -54 17 -32 -23 13 -24
-11 -44 -42 -35 l-22 8 18 -29 c10 -16 30 -44 43 -61 20 -28 21 -33 7 -33 -10
0 -14 -5 -10 -15 3 -8 1 -15 -4 -15 -6 0 -10 11 -10 25 0 14 -5 25 -11 25 -5
0 -7 4 -4 10 10 16 -42 -6 -78 -34 -55 -41 -94 -39 -117 5 -9 16 -6 24 16 44
26 24 26 25 5 25 -12 0 -21 -6 -21 -15 0 -17 -50 -21 -65 -6 -13 12 -79 -15
-70 -29 3 -5 15 -10 26 -10 27 0 34 -23 18 -60 -23 -52 -45 -38 -72 45 -19 60
-10 114 25 152 44 47 117 72 141 48 13 -12 13 -19 -2 -49 -18 -39 -26 -43 -47
-21 -35 35 -55 10 -32 -40 13 -29 23 -32 32 -10 4 12 14 14 40 9 l35 -6 3 44
c2 34 7 43 22 43 28 0 44 -30 28 -55 -6 -11 -18 -29 -24 -40 -10 -15 -10 -22
-1 -31 19 -19 83 34 83 69 0 41 18 98 36 113 12 10 42 19 96 28 4 0 18 -3 32
-9z m-567 -16 c1 -5 -2 -16 -7 -24 -12 -20 -35 2 -26 25 6 17 27 16 33 -1z
m-1487 0 c0 -3 -4 -14 -10 -24 -22 -41 18 -69 42 -30 14 21 72 28 83 10 9 -15
-17 -49 -47 -59 -36 -13 -35 -29 2 -42 17 -6 30 -17 30 -25 0 -8 7 -14 15 -14
24 0 18 -35 -10 -56 -17 -13 -21 -20 -12 -26 8 -5 7 -8 -5 -8 -9 0 -30 -8 -46
-17 -24 -14 -37 -15 -59 -7 -26 9 -28 14 -30 64 -4 106 -14 170 -28 170 -20 0
-25 -26 -13 -61 9 -26 8 -34 -10 -51 -24 -24 -36 -19 -58 27 -15 32 -12 75 6
75 4 0 11 11 14 25 4 15 13 25 24 25 15 0 15 -2 2 -10 -32 -21 7 -8 45 14 39
24 65 32 65 20z m1549 -55 c-20 -12 -30 0 -17 21 11 17 13 18 21 4 6 -11 5
-19 -4 -25z m585 15 c10 -4 16 -18 16 -35 0 -25 -4 -29 -29 -29 -33 0 -44 23
-27 53 12 19 17 20 40 11z m-3519 -75 c-4 -5 -13 -9 -22 -9 -13 0 -13 3 -3 15
13 15 35 11 25 -6z m3425 11 c0 -5 11 -10 24 -10 14 0 27 -4 30 -9 3 -5 18
-12 33 -16 40 -10 56 -25 42 -41 -8 -10 -16 -10 -34 -2 -19 8 -27 6 -45 -12
-12 -12 -28 -19 -37 -16 -8 3 -20 6 -27 6 -23 0 -39 50 -25 82 11 26 39 40 39
18z m4880 -40 c0 -5 -5 -10 -11 -10 -5 0 -7 5 -4 10 3 6 8 10 11 10 2 0 4 -4
4 -10z m-6570 -10 c0 -5 -4 -10 -10 -10 -5 0 -10 5 -10 10 0 6 5 10 10 10 6 0
10 -4 10 -10z m6820 -32 c0 -13 -23 -5 -28 10 -2 7 2 10 12 6 9 -3 16 -11 16
-16z m-8700 3 c0 -12 -20 -25 -27 -18 -7 7 6 27 18 27 5 0 9 -4 9 -9z m7804
-26 c-4 -8 -10 -15 -15 -15 -4 0 -6 7 -3 15 4 8 10 15 15 15 4 0 6 -7 3 -15z
m1166 -15 c0 -5 -2 -10 -4 -10 -3 0 -8 5 -11 10 -3 6 -1 10 4 10 6 0 11 -4 11
-10z m-9180 -14 c0 -3 -4 -8 -10 -11 -5 -3 -10 -1 -10 4 0 6 5 11 10 11 6 0
10 -2 10 -4z m3903 -27 c-6 -6 -19 -9 -29 -7 -17 3 -17 4 1 21 12 13 21 15 28
8 8 -8 8 -14 0 -22z m-1883 12 c0 -5 -7 -11 -15 -15 -8 -3 -15 -12 -15 -20 0
-13 -20 -26 -41 -26 -22 0 -6 33 21 43 17 6 30 15 30 19 0 4 5 8 10 8 6 0 10
-4 10 -9z m6960 -5 c0 -3 -4 -8 -10 -11 -5 -3 -10 -1 -10 4 0 6 5 11 10 11 6
0 10 -2 10 -4z m-7170 -66 c0 -5 -5 -10 -11 -10 -5 0 -7 5 -4 10 3 6 8 10 11
10 2 0 4 -4 4 -10z m-185 -10 c4 -6 0 -21 -9 -34 -8 -13 -12 -33 -9 -45 6 -24
-5 -27 -31 -8 -13 10 -16 21 -10 55 5 35 10 42 30 42 12 0 26 -5 29 -10z
m6515 -24 c0 -3 -4 -8 -10 -11 -5 -3 -10 -1 -10 4 0 6 5 11 10 11 6 0 10 -2
10 -4z m-4250 -47 c0 -25 -26 -24 -40 0 -14 27 -13 29 15 23 16 -3 25 -11 25
-23z m-2210 -63 c0 -8 -5 -18 -11 -22 -6 -4 -9 -19 -5 -36 4 -21 2 -28 -6 -26
-16 6 -33 62 -25 82 8 20 47 21 47 2z m-110 -31 c16 10 50 -5 44 -20 -4 -10
-13 -11 -36 -5 -38 12 -58 28 -58 49 1 12 5 11 20 -7 11 -13 24 -21 30 -17z
m2162 -30 c-13 -27 -31 -32 -50 -13 -19 19 -14 48 11 57 33 13 54 -10 39 -44z
m-92 10 c0 -28 5 -37 30 -50 17 -9 30 -22 30 -29 0 -25 -12 -46 -26 -46 -19 0
-18 -9 3 -32 13 -15 15 -23 7 -36 -14 -22 -34 -25 -67 -13 -26 10 -27 12 -27
99 0 55 4 92 12 100 7 7 8 12 4 12 -5 0 -3 7 4 15 20 24 30 18 30 -20z m-1510
11 c0 -16 -18 -31 -27 -22 -8 8 5 36 17 36 5 0 10 -6 10 -14z m425 -6 c3 -5
-3 -10 -15 -10 -12 0 -18 5 -15 10 3 6 10 10 15 10 5 0 12 -4 15 -10z m3560
-10 c-3 -5 -14 -10 -23 -9 -14 0 -13 2 3 9 27 11 27 11 20 0z m-2275 -31 c0
-5 -4 -9 -10 -9 -5 0 -10 7 -10 16 0 8 5 12 10 9 6 -3 10 -10 10 -16z m2245 2
c3 -5 1 -12 -5 -16 -5 -3 -10 1 -10 9 0 18 6 21 15 7z m-2300 -38 c-2 -16 -7
-41 -10 -58 -4 -20 -3 -26 3 -17 14 21 48 10 44 -13 -5 -28 -64 -93 -85 -94
-16 -1 -16 1 3 21 27 29 25 59 -4 103 -28 41 -25 60 13 79 33 18 40 13 36 -21z
m49 -8 c-7 -16 -24 -21 -24 -6 0 8 7 13 27 20 1 1 0 -6 -3 -14z m2233 -17 c-3
-7 -5 -2 -5 12 0 14 2 19 5 13 2 -7 2 -19 0 -25z m-4130 -40 c-4 -14 5 -25 34
-44 34 -21 38 -28 33 -52 -12 -50 -68 -80 -103 -55 -25 17 -29 79 -6 109 8 10
15 28 15 40 0 11 3 24 6 27 12 12 26 -5 21 -25z m7323 -8 c0 -5 -5 -10 -11
-10 -5 0 -7 5 -4 10 3 6 8 10 11 10 2 0 4 -4 4 -10z m-5298 -77 c-10 -4 -10
-8 -2 -18 8 -10 8 -20 -1 -36 l-11 -22 -12 21 c-8 15 -15 19 -26 12 -12 -8
-13 -13 -3 -29 19 -30 -16 -39 -39 -9 -20 26 -20 63 0 63 8 0 19 7 26 17 14
19 57 28 71 15 7 -6 6 -11 -3 -14z m93 18 c3 -5 1 -12 -5 -16 -5 -3 -10 1 -10
9 0 18 6 21 15 7z m1599 -29 c7 -27 6 -35 -10 -47 -29 -23 -49 -14 -52 23 -6
64 45 84 62 24z m-3854 -96 c-15 -15 -34 9 -26 31 7 17 8 17 22 -1 9 -13 11
-23 4 -30z m2083 -8 c4 -10 7 -10 18 0 7 6 22 12 33 12 17 0 18 -2 4 -17 -25
-30 -28 -50 -8 -73 26 -30 17 -47 -25 -42 -27 3 -35 9 -35 25 0 11 7 28 15 37
13 15 13 19 -5 38 -11 12 -20 24 -20 27 0 10 18 5 23 -7z m-2283 -18 c0 -5 -2
-10 -4 -10 -3 0 -8 5 -11 10 -3 6 -1 10 4 10 6 0 11 -4 11 -10z m30 0 c0 -5
-4 -10 -10 -10 -5 0 -10 5 -10 10 0 6 5 10 10 10 6 0 10 -4 10 -10z m2100 -9
c0 -14 -18 -23 -30 -16 -6 4 -8 11 -5 16 8 12 35 12 35 0z m-1702 -93 c-2 -18
-10 -23 -32 -23 -36 0 -44 17 -14 31 37 19 50 16 46 -8z m3582 12 c0 -5 -4
-10 -10 -10 -5 0 -10 5 -10 10 0 6 5 10 10 10 6 0 10 -4 10 -10z m-3430 -39
c0 -5 -6 -14 -14 -20 -16 -13 -32 2 -21 19 8 12 35 13 35 1z m6995 -1 c3 -5 1
-10 -4 -10 -6 0 -11 5 -11 10 0 6 2 10 4 10 3 0 8 -4 11 -10z m-6644 -10 c23
-13 24 -28 2 -59 -15 -23 -17 -23 -30 -6 -16 22 -18 75 -2 75 6 0 19 -5 30
-10z m-91 -26 c19 -49 13 -64 -25 -64 -42 0 -44 -11 -7 -39 l27 -20 -29 -24
c-31 -25 -29 -47 5 -47 31 0 22 -20 -16 -36 -25 -10 -33 -18 -28 -31 4 -11 -3
-24 -22 -39 -24 -19 -29 -31 -30 -66 -1 -24 -5 -55 -9 -70 -9 -30 -26 -38 -26
-13 0 8 5 15 10 15 6 0 10 5 10 11 0 6 -9 8 -22 3 -13 -4 -35 -7 -50 -6 -28 2
-33 -6 -30 -49 1 -15 -34 -29 -74 -29 -27 0 -14 20 14 21 26 0 27 0 4 10 -13
5 -20 13 -17 19 3 5 -2 10 -12 10 -12 0 -14 3 -6 8 8 5 6 14 -8 31 -10 13 -19
19 -19 14 0 -8 -33 -10 -72 -4 -12 2 -9 23 6 40 7 9 16 33 20 53 l7 37 -36 -4
c-24 -3 -35 -1 -35 8 0 19 21 37 45 37 12 0 26 5 32 11 8 8 17 8 31 0 29 -15
27 -16 46 34 16 41 20 45 48 42 27 -2 32 2 43 33 6 19 16 33 21 30 5 -3 8 -8
7 -12 -3 -9 25 -19 30 -10 2 4 7 20 11 35 5 23 11 27 27 22 22 -7 69 28 69 52
0 7 11 13 25 13 18 0 28 -7 35 -26z m2880 16 c0 -5 -4 -10 -10 -10 -5 0 -10 5
-10 10 0 6 5 10 10 10 6 0 10 -4 10 -10z m-1733 -42 c7 -6 13 -23 13 -39 0
-23 -7 -33 -34 -46 -19 -9 -41 -13 -50 -10 -25 10 -31 55 -13 93 15 31 19 33
44 23 15 -5 33 -15 40 -21z m-2219 -17 c5 -31 -6 -71 -19 -71 -6 0 -8 4 -4 9
3 6 -4 25 -15 43 -26 43 -25 50 8 46 20 -2 28 -9 30 -27z m1723 -21 c7 -52 5
-58 -15 -41 -8 7 -24 10 -35 6 -11 -3 -23 0 -27 6 -5 9 -2 10 9 6 11 -4 17 -1
17 9 0 8 -4 13 -8 10 -5 -3 -22 -1 -38 3 l-29 8 30 12 c17 6 37 15 45 21 29
18 45 6 51 -40z m64 40 c3 -5 1 -10 -4 -10 -6 0 -11 5 -11 10 0 6 2 10 4 10 3
0 8 -4 11 -10z m-531 -13 c21 -15 13 -40 -20 -62 -24 -15 -35 -65 -14 -65 6 0
10 5 10 10 0 6 12 9 27 8 22 -3 31 4 49 37 32 57 41 65 74 65 33 0 45 -24 35
-70 -7 -32 -23 -38 -43 -18 -23 23 -34 -5 -17 -45 12 -28 21 -37 40 -37 41 0
75 -21 75 -47 0 -31 -24 -39 -55 -19 -23 15 -27 15 -49 0 -23 -14 -28 -14 -61
2 -20 9 -34 19 -31 21 2 2 13 -1 25 -8 24 -16 29 -13 33 25 3 25 -1 30 -27 37
-35 10 -75 2 -72 -15 4 -21 -76 -7 -95 17 -24 30 -22 37 8 37 24 0 25 2 19 33
-4 17 -12 38 -17 45 -8 9 -5 12 12 12 12 0 31 11 42 25 22 29 28 30 52 12z
m266 -32 c0 -24 -36 -59 -53 -52 -22 8 -22 53 -1 65 21 12 54 4 54 -13z m56
-1 c-9 -9 -20 -14 -23 -10 -4 3 2 13 13 20 25 18 31 12 10 -10z m-2386 6 c0
-5 -4 -10 -10 -10 -5 0 -10 5 -10 10 0 6 5 10 10 10 6 0 10 -4 10 -10z m2434
-29 c3 -5 -1 -27 -8 -49 -16 -43 -13 -52 16 -52 24 0 23 -17 -2 -30 -16 -8
-22 -8 -26 3 -2 7 -10 14 -17 15 -7 1 -24 4 -39 8 -21 5 -27 2 -33 -16 -9 -28
-27 -21 -36 14 -6 23 -4 28 16 36 13 5 26 14 30 19 3 6 15 11 26 11 22 0 49
22 49 39 0 13 17 14 24 2z m159 -42 c10 -38 -3 -56 -44 -63 -29 -5 -44 -2 -55
8 -17 18 -18 27 -1 25 27 -3 37 2 37 21 0 21 27 41 46 33 7 -2 14 -13 17 -24z
m253 -6 c-10 -10 -19 5 -10 18 6 11 8 11 12 0 2 -7 1 -15 -2 -18z m-1499 -70
c7 -19 -35 -37 -53 -22 -11 9 -12 15 -2 26 13 16 50 14 55 -4z m2648 7 c3 -6
-1 -7 -9 -4 -18 7 -21 14 -7 14 6 0 13 -4 16 -10z m-839 -57 c-12 -12 -29 15
-21 34 7 17 8 16 18 -5 5 -12 7 -25 3 -29z m-772 15 c18 -25 6 -48 -25 -48
-24 0 -38 48 -18 61 21 13 26 11 43 -13z m-1401 -30 c-13 -6 -23 -15 -23 -20
0 -4 -7 -8 -15 -8 -24 0 -17 15 13 27 35 14 53 15 25 1z m2087 -2 c0 -20 -12
-26 -38 -19 -21 5 -21 6 -5 19 24 18 43 18 43 0z m-739 -36 c25 -14 24 -52 -1
-75 -18 -16 -22 -17 -34 -4 -17 18 -36 75 -29 83 10 9 42 7 64 -4z m237 -25
c9 -20 9 -33 -3 -60 -7 -19 -18 -35 -24 -35 -14 0 -82 82 -78 94 3 10 41 22
78 25 9 0 21 -10 27 -24z m2632 -121 c0 -87 -3 -106 -16 -111 -22 -8 -31 11
-39 81 -9 83 -13 96 -38 106 l-22 8 22 9 c13 4 38 9 58 10 l35 2 0 -105z
m-7070 67 c0 -6 -4 -13 -10 -16 -5 -3 -10 1 -10 9 0 9 5 16 10 16 6 0 10 -4
10 -9z m4527 -7 c9 -23 -11 -38 -26 -20 -13 16 -7 36 10 36 5 0 12 -7 16 -16z
m143 -29 c0 -18 -5 -25 -20 -25 -11 0 -20 7 -20 15 0 19 -19 19 -26 0 -5 -11
-10 -12 -26 -4 -19 10 -19 11 -1 24 10 8 35 15 56 15 33 0 37 -3 37 -25z
m-447 -9 c9 -7 17 -18 17 -24 0 -6 9 -16 20 -22 11 -6 20 -20 20 -30 0 -26
-17 -26 -25 0 -4 14 -15 20 -36 20 -16 0 -29 5 -29 10 0 6 -7 10 -15 10 -19 0
-19 14 1 34 19 19 24 19 47 2z m-1048 -6 c3 -5 0 -10 -8 -10 -7 0 -20 -12 -27
-27 l-14 -28 -4 24 c-5 34 37 66 53 41z m147 -12 c-7 -7 -12 -8 -12 -2 0 14
12 26 19 19 2 -3 -1 -11 -7 -17z m-1012 -2 c0 -17 -14 -29 -23 -20 -8 8 3 34
14 34 5 0 9 -6 9 -14z m2118 -43 c4 -27 -22 -47 -44 -35 -20 11 -26 51 -11 70
13 17 51 -7 55 -35z m-583 -1 c1 -30 16 -51 38 -52 4 0 7 9 7 19 0 29 34 65
53 58 23 -9 21 -36 -5 -64 -12 -13 -20 -25 -17 -27 12 -10 99 -16 99 -7 0 19
26 12 49 -13 23 -24 23 -25 5 -50 -20 -25 -56 -43 -48 -22 6 15 -33 38 -54 32
-9 -3 -23 -15 -30 -26 -11 -18 -10 -20 10 -20 37 0 68 -12 68 -25 0 -17 -72
-65 -98 -65 -30 0 -44 32 -40 93 2 36 -1 52 -9 53 -7 1 -17 2 -22 3 -5 0 -13
10 -16 21 -3 11 -11 20 -16 20 -16 0 -10 -41 12 -77 12 -18 18 -40 15 -48 -6
-17 -37 -20 -52 -6 -5 5 -20 11 -34 13 -33 4 -38 39 -9 77 13 18 19 36 15 47
-4 9 3 36 15 61 17 34 26 43 43 41 16 -2 21 -10 21 -36z m-1607 -5 c20 -15 14
-24 -18 -29 -27 -4 -30 -2 -30 23 0 23 4 27 18 22 9 -3 23 -10 30 -16z m2322
7 c18 -4 30 -13 30 -22 0 -13 3 -12 15 4 15 18 15 18 13 -6 -2 -14 -9 -24 -16
-22 -6 1 -12 -6 -12 -15 0 -13 -3 -14 -12 -5 -18 18 -35 14 -41 -9 -3 -12 -10
-18 -16 -14 -6 3 -11 -2 -11 -13 0 -26 -27 -49 -41 -35 -14 14 -18 125 -5 141
6 9 20 12 38 8 15 -3 42 -9 58 -12z m347 -6 c-3 -8 -6 -5 -6 6 -1 11 2 17 5
13 3 -3 4 -12 1 -19z m2673 -34 c7 -17 7 -32 0 -45 -23 -42 -66 -10 -55 41 8
38 41 41 55 4z m-3272 -24 c25 0 41 -33 42 -86 0 -55 -8 -64 -55 -64 -13 0
-25 -6 -28 -12 -3 -9 -10 -8 -26 6 -11 11 -21 23 -21 28 0 5 -10 22 -21 37
l-21 29 27 35 c26 35 61 51 80 35 5 -4 15 -8 23 -8z m2912 -56 c0 -6 -6 -17
-14 -23 -10 -9 -16 -8 -26 4 -10 13 -10 21 -1 43 12 26 13 26 27 7 8 -10 14
-24 14 -31z m1922 21 c0 -5 -5 -11 -11 -13 -6 -2 -11 4 -11 13 0 9 5 15 11 13
6 -2 11 -8 11 -13z m-6187 -50 l6 -30 -15 25 c-17 28 -22 60 -7 45 5 -6 12
-23 16 -40z m1477 13 c-8 -8 -9 -4 -5 13 4 13 8 18 11 10 2 -7 -1 -18 -6 -23z
m462 -23 c-6 -16 -24 -21 -24 -7 0 11 11 22 21 22 5 0 6 -7 3 -15z m2504 -23
c2 -12 -2 -22 -8 -22 -7 0 -10 -6 -7 -12 3 -8 -5 -14 -19 -14 -20 -2 -22 2
-19 27 2 16 6 33 10 39 11 18 40 6 43 -18z m-5230 -20 c2 -7 -3 -12 -12 -12
-9 0 -16 7 -16 16 0 17 22 14 28 -4z m1550 -7 c-3 -3 -9 2 -12 12 -6 14 -5 15
5 6 7 -7 10 -15 7 -18z m3361 11 c9 -10 10 -37 6 -83 -6 -73 -1 -89 30 -95 18
-3 21 4 25 56 l5 60 55 0 55 1 0 -35 c0 -19 6 -45 13 -57 7 -13 9 -23 4 -23
-4 0 -22 -20 -40 -45 -23 -33 -38 -45 -57 -45 -15 0 -41 -15 -65 -36 -41 -37
-48 -38 -29 -3 5 11 8 28 5 37 -8 23 -56 28 -56 6 0 -9 -5 -14 -12 -12 -18 6
-22 28 -4 28 21 0 28 33 24 116 l-3 69 -35 5 c-46 7 -48 34 -3 38 17 2 37 10
43 18 16 18 24 18 39 0z m-1975 -41 c-4 -8 -12 -15 -20 -15 -17 0 -18 17 -1
23 22 9 27 7 21 -8z m326 5 c0 -5 -5 -10 -11 -10 -5 0 -7 5 -4 10 3 6 8 10 11
10 2 0 4 -4 4 -10z m-2416 -22 c-3 -4 -9 -8 -15 -8 -5 0 -9 4 -9 8 0 5 7 9 15
9 8 0 12 -4 9 -9z m-818 -60 c-1 -41 -3 -43 -33 -46 -23 -2 -34 2 -42 17 -9
16 -7 21 9 26 11 4 28 17 36 31 22 32 30 24 30 -28z m117 38 c25 -19 21 -36
-8 -36 -20 0 -25 5 -25 25 0 28 7 30 33 11z m5034 -48 c-3 -8 -6 -5 -6 6 -1
11 2 17 5 13 3 -3 4 -12 1 -19z m-5057 -13 c-7 -9 -15 -13 -19 -10 -3 3 1 10
9 15 21 14 24 12 10 -5z m590 -5 c0 -5 -4 -10 -10 -10 -5 0 -10 5 -10 10 0 6
5 10 10 10 6 0 10 -4 10 -10z m4488 -29 c28 -24 28 -37 0 -44 -13 -4 -33 2
-51 15 -28 20 -29 22 -11 35 24 17 34 16 62 -6z m-5188 -21 c0 -5 -4 -10 -10
-10 -5 0 -10 5 -10 10 0 6 5 10 10 10 6 0 10 -4 10 -10z m1497 -6 c-3 -3 -12
-4 -19 -1 -8 3 -5 6 6 6 11 1 17 -2 13 -5z m6938 -4 c3 -5 1 -10 -4 -10 -6 0
-11 5 -11 10 0 6 2 10 4 10 3 0 8 -4 11 -10z m-7183 -62 c-7 -7 -12 -8 -12 -2
0 14 12 26 19 19 2 -3 -1 -11 -7 -17z m172 3 c12 -18 -21 -41 -66 -45 -25 -2
-55 -9 -67 -15 -32 -18 -43 -13 -21 9 12 12 26 20 33 19 19 -3 67 12 67 21 0
7 16 15 42 19 4 0 9 -3 12 -8z m-1154 -36 c0 -12 -19 -12 -23 0 -4 9 -1 12 9
8 7 -3 14 -7 14 -8z m-250 -28 c0 -18 -4 -37 -9 -42 -6 -6 -3 -24 7 -47 15
-34 20 -37 71 -43 31 -4 110 -9 176 -11 176 -5 293 -12 302 -17 5 -3 34 -1 67
3 47 7 64 5 83 -7 39 -26 85 -134 63 -148 -7 -4 -9 -41 -6 -98 3 -51 8 -190
12 -310 5 -186 9 -219 23 -227 11 -7 13 -12 5 -17 -7 -5 -14 -19 -15 -32 -4
-25 -42 -40 -54 -21 -7 11 -53 3 -73 -13 -10 -8 -16 -7 -20 0 -8 13 -82 13
-82 0 0 -5 -23 -7 -51 -5 -29 3 -45 2 -37 -3 9 -6 3 -8 -17 -8 -16 0 -24 3
-17 6 26 10 -1 23 -49 23 -36 0 -49 -4 -49 -14 0 -21 14 -27 60 -28 46 0 59
-12 31 -27 -26 -14 -32 -14 -28 2 1 7 -10 13 -28 14 -16 1 -24 0 -17 -3 6 -3
12 -17 12 -30 0 -14 7 -27 15 -30 9 -4 15 -19 15 -37 0 -26 -10 -35 -12 -10
-1 4 -16 23 -35 42 -22 22 -33 41 -30 53 3 11 0 18 -9 18 -8 0 -14 7 -14 15 0
8 -7 15 -15 15 -8 0 -15 5 -15 10 0 11 -71 13 -119 4 -17 -4 -28 -10 -25 -15
3 -5 -6 -9 -20 -9 -14 0 -26 -4 -26 -10 0 -5 -10 -10 -22 -10 -20 0 -21 -1 -7
-16 15 -14 14 -21 -5 -80 -15 -44 -26 -64 -38 -64 -20 0 -32 -16 -18 -25 17
-10 11 -60 -9 -77 -30 -26 -46 -1 -27 43 13 30 12 37 -2 61 -14 24 -14 29 2
52 9 14 23 26 31 26 8 0 16 9 17 20 0 11 1 26 2 33 1 6 6 15 11 19 6 5 5 8 -2
8 -7 0 -12 3 -12 8 4 22 -3 32 -21 32 -13 0 -27 14 -40 40 -11 22 -20 43 -19
47 1 5 1 31 0 60 -1 42 -5 53 -21 58 -25 8 -26 22 -3 27 15 3 18 15 19 76 0
67 -1 72 -19 70 -11 -2 -22 3 -25 11 -3 10 2 13 22 9 l27 -5 -8 91 c-9 103 -8
268 2 371 6 57 12 74 32 91 22 18 23 24 12 41 -10 17 -9 24 7 46 26 37 44 34
44 -6z m242 -12 c0 -5 -5 -11 -11 -13 -6 -2 -11 4 -11 13 0 9 5 15 11 13 6 -2
11 -8 11 -13z m-82 -35 c0 -5 -7 -7 -15 -4 -8 4 -12 10 -9 15 6 11 24 2 24
-11z m1240 -20 c0 -4 -11 -10 -25 -12 -16 -3 -25 -1 -25 7 0 7 11 13 25 13 14
0 25 -4 25 -8z m-1120 -25 c0 -8 -7 -15 -15 -15 -8 0 -15 7 -15 15 0 8 7 15
15 15 8 0 15 -7 15 -15z m666 -12 c-10 -10 -19 5 -10 18 6 11 8 11 12 0 2 -7
1 -15 -2 -18z m-746 7 c0 -5 -7 -10 -15 -10 -8 0 -15 5 -15 10 0 6 7 10 15 10
8 0 15 -4 15 -10z m487 -6 c8 -21 -13 -42 -28 -27 -13 13 -5 43 11 43 6 0 13
-7 17 -16z m110 -31 c-3 -10 -5 -4 -5 12 0 17 2 24 5 18 2 -7 2 -21 0 -30z
m288 27 c-3 -5 -11 -10 -16 -10 -6 0 -7 5 -4 10 3 6 11 10 16 10 6 0 7 -4 4
-10z m-95 -30 c0 -5 -4 -10 -10 -10 -5 0 -10 5 -10 10 0 6 5 10 10 10 6 0 10
-4 10 -10z m40 -287 c-10 -16 -11 -15 -6 7 3 14 6 34 7 45 1 13 3 11 6 -7 2
-15 -1 -35 -7 -45z m98 -43 c10 -17 10 -21 -4 -27 -18 -7 -35 13 -27 34 7 18
16 16 31 -7z m5072 -69 c0 -12 -20 -25 -27 -18 -7 7 6 27 18 27 5 0 9 -4 9 -9z
m-5196 -227 c4 -10 1 -14 -6 -12 -15 5 -23 28 -10 28 5 0 13 -7 16 -16z m6373
-40 c-3 -3 -12 -4 -19 -1 -8 3 -5 6 6 6 11 1 17 -2 13 -5z m-6426 -67 c-5 -5
-14 0 -21 13 -9 16 -8 25 1 37 12 13 14 12 21 -13 4 -16 4 -32 -1 -37z m-134
-133 c-3 -3 -12 -4 -19 -1 -8 3 -5 6 6 6 11 1 17 -2 13 -5z m-927 -54 c0 -5
-4 -10 -10 -10 -5 0 -10 5 -10 10 0 6 5 10 10 10 6 0 10 -4 10 -10z m608 -7
c-20 -5 -23 -18 -8 -28 6 -3 10 -13 10 -21 0 -8 12 -26 27 -40 31 -28 26 -40
-10 -23 -27 12 -44 39 -51 81 -5 31 0 38 28 37 17 -1 18 -2 4 -6z m407 -12 c3
-5 1 -12 -5 -16 -5 -3 -10 1 -10 9 0 18 6 21 15 7z m-715 -54 c0 -25 -6 -35
-28 -45 -49 -24 -56 -26 -48 -14 4 7 9 21 11 31 5 25 46 72 57 65 4 -3 8 -20
8 -37z m1680 33 c0 -5 -4 -10 -10 -10 -5 0 -10 5 -10 10 0 6 5 10 10 10 6 0
10 -4 10 -10z m-4030 -70 c0 -10 3 -32 6 -49 5 -24 3 -31 -7 -29 -23 5 -36 22
-31 40 3 12 -1 18 -12 18 -9 0 -16 6 -16 13 0 19 7 25 35 25 17 0 25 -6 25
-18z m3160 10 c0 -5 -7 -10 -16 -10 -8 0 -12 5 -9 10 3 6 10 10 16 10 5 0 9
-4 9 -10z m-248 -52 c-10 -10 -15 -10 -21 1 -5 8 -7 21 -4 28 5 12 8 12 21 -1
13 -13 14 -18 4 -28z m518 4 c0 -10 5 -23 12 -30 9 -9 9 -12 0 -12 -7 0 -12
-9 -12 -20 0 -23 -22 -26 -39 -6 -11 12 -7 55 6 79 8 14 33 7 33 -11z m-1372
-23 c-11 -6 -15 -16 -11 -26 6 -15 5 -16 -9 -3 -18 17 -6 40 21 40 14 -1 14
-2 -1 -11z m591 -3 c10 -12 8 -17 -9 -26 -26 -14 -46 0 -37 24 8 20 31 21 46
2z m76 5 c3 -5 1 -12 -4 -16 -6 -3 -9 -11 -7 -18 1 -7 1 -9 -1 -4 -3 4 -11 7
-18 7 -8 0 -11 7 -8 20 6 21 28 27 38 11z m105 -41 c0 -5 -2 -10 -4 -10 -3 0
-8 5 -11 10 -3 6 -1 10 4 10 6 0 11 -4 11 -10z m625 0 c3 -5 1 -10 -4 -10 -6
0 -11 5 -11 10 0 6 2 10 4 10 3 0 8 -4 11 -10z m-437 -17 c2 -9 -8 -13 -33
-13 -33 0 -36 2 -25 15 15 18 51 16 58 -2z m-453 -18 c0 -24 -30 -32 -51 -14
-14 12 -14 14 2 26 25 18 49 12 49 -12z m180 15 c3 -5 1 -10 -4 -10 -6 0 -11
5 -11 10 0 6 2 10 4 10 3 0 8 -4 11 -10z m340 0 c3 -5 -1 -10 -9 -10 -9 0 -16
5 -16 10 0 6 4 10 9 10 6 0 13 -4 16 -10z m-280 -18 c-3 -3 -11 0 -18 7 -9 10
-8 11 6 5 10 -3 15 -9 12 -12z m133 6 c-6 -18 -28 -21 -28 -4 0 9 7 16 16 16
9 0 14 -5 12 -12z m-859 -77 c9 -6 10 -10 2 -16 -15 -8 -41 1 -41 15 0 12 20
13 39 1z m-532 -32 c13 -11 13 -14 -3 -26 -16 -11 -16 -13 -1 -19 23 -9 21
-21 -4 -27 -28 -7 -57 5 -92 37 -15 14 -40 27 -55 27 -20 1 -14 5 23 15 55 14
109 12 132 -7z m-257 -14 c-7 -9 -15 -13 -17 -11 -7 7 7 26 19 26 6 0 6 -6 -2
-15z m460 -1 c3 -5 -15 -11 -40 -14 -41 -5 -43 -6 -25 -18 14 -9 16 -15 7 -18
-8 -4 -5 -12 12 -25 29 -23 36 -24 36 -5 0 8 6 17 13 19 6 3 2 6 -10 6 -13 1
-23 6 -23 11 0 11 20 13 44 4 20 -8 21 -44 1 -44 -8 0 -15 -9 -15 -20 0 -13
-7 -20 -20 -20 -15 0 -20 -7 -20 -29 0 -32 -23 -57 -41 -45 -9 5 -9 2 -1 -12
8 -14 6 -26 -6 -46 -16 -27 -52 -39 -52 -17 0 15 -41 48 -60 49 -12 0 -13 2
-1 9 8 5 11 16 6 30 -6 21 -4 21 49 17 53 -4 76 7 41 20 -10 4 -13 13 -10 24
4 13 -1 19 -20 24 -28 7 -33 24 -10 32 10 4 15 20 15 45 l0 40 63 -4 c34 -3
64 -9 67 -13z m-810 -4 c11 -7 4 -10 -27 -10 -24 0 -43 5 -43 10 0 13 50 13
70 0z m83 3 c-7 -2 -19 -2 -25 0 -7 3 -2 5 12 5 14 0 19 -2 13 -5z m214 -9
c-3 -3 -12 -4 -19 -1 -8 3 -5 6 6 6 11 1 17 -2 13 -5z m48 -44 c9 -14 -13 -50
-30 -50 -16 0 -19 18 -9 44 7 18 30 21 39 6z m-757 -12 c7 -7 12 -20 12 -29 0
-9 7 -20 16 -23 8 -3 12 -11 9 -17 -5 -7 -15 -3 -30 11 -12 11 -29 18 -37 15
-9 -4 -19 -2 -22 3 -3 6 1 12 9 16 8 3 15 12 15 21 0 18 12 19 28 3z m655 4
c-6 -4 -13 -23 -15 -42 l-4 -35 -12 29 c-16 37 -9 56 20 56 14 0 18 -3 11 -8z
m184 -18 c2 -6 -8 -16 -22 -22 -27 -12 -25 -13 -39 32 -3 10 3 12 27 7 17 -4
32 -11 34 -17z m683 -4 c0 -13 -7 -20 -20 -20 -19 0 -27 20 -13 33 13 14 33 6
33 -13z m-1380 -17 c0 -8 12 -19 28 -26 30 -13 33 -47 4 -47 -9 0 -29 -6 -43
-13 -17 -10 -33 -11 -50 -5 l-24 9 24 20 c17 14 19 19 8 19 -19 0 -33 20 -20
29 5 3 12 13 15 22 8 21 58 14 58 -8z m1550 6 c11 -6 9 -9 -10 -13 -50 -11
-83 -11 -87 2 -3 6 2 12 11 12 9 0 16 5 16 10 0 11 42 4 70 -11z m-1325 1 c4
-6 1 -18 -6 -26 -12 -14 -14 -14 -20 3 -10 29 11 47 26 23z m-531 -9 c8 -13
-4 -42 -15 -35 -12 7 -12 44 0 44 6 0 12 -4 15 -9z m1538 -26 c3 -14 4 -25 2
-25 -1 0 -9 -3 -18 -6 -12 -5 -16 0 -16 18 0 43 25 53 32 13z m-1712 -6 c0 -5
-7 -9 -15 -9 -15 0 -20 12 -9 23 8 8 24 -1 24 -14z m844 -29 c3 -14 3 -19 0
-12 -3 6 -11 12 -19 12 -21 0 -36 25 -23 38 15 15 33 -1 42 -38z m1276 5 c0 6
4 3 10 -5 5 -9 5 -19 -1 -26 -5 -7 -8 -18 -7 -25 2 -10 -6 -13 -29 -11 -31 2
-32 1 -23 -24 14 -36 12 -54 -4 -54 -8 0 -17 -6 -19 -12 -3 -7 -6 -3 -6 8 -1
26 -29 40 -37 19 -7 -17 -30 -20 -38 -6 -12 19 6 41 28 36 25 -6 56 11 41 23
-5 4 -10 12 -11 17 0 6 -7 25 -15 43 -14 33 -33 42 -42 20 -4 -8 -6 -9 -6 -2
-2 24 27 37 58 26 24 -8 32 -7 42 5 12 13 16 12 36 -13 13 -16 23 -24 23 -19z
m-1105 25 c3 -5 1 -10 -4 -10 -6 0 -11 5 -11 10 0 6 2 10 4 10 3 0 8 -4 11
-10z m65 -10 c0 -5 -5 -10 -11 -10 -5 0 -7 5 -4 10 3 6 8 10 11 10 2 0 4 -4 4
-10z m139 -4 c9 -11 7 -15 -10 -19 -11 -3 -18 -10 -15 -15 7 -11 -16 -22 -45
-22 -10 0 -19 -4 -19 -8 0 -5 -11 -14 -25 -20 -26 -12 -33 -40 -14 -59 7 -7 7
-13 1 -17 -13 -8 -42 32 -42 56 0 10 7 18 16 18 9 0 12 5 8 12 -4 7 -3 8 4 4
7 -4 12 -1 12 8 0 9 8 16 18 16 9 0 33 14 52 30 40 34 43 35 59 16z m-269 -57
c0 -5 -4 -9 -10 -9 -15 0 -31 37 -24 55 5 13 9 11 20 -11 8 -14 14 -30 14 -35z
m1448 43 c6 -18 -15 -14 -22 4 -4 10 -1 14 6 12 6 -2 14 -10 16 -16z m4422
-22 c33 -31 33 -31 27 -108 -3 -45 -14 -97 -26 -126 -22 -50 -51 -154 -71
-259 -15 -74 -49 -117 -95 -117 -48 0 -66 21 -53 63 5 17 10 100 11 183 2 105
6 156 15 166 7 9 21 50 32 92 24 91 36 113 70 125 42 16 56 12 90 -19z m-6438
-16 c-7 -36 -22 -39 -22 -5 0 22 4 31 13 28 6 -2 10 -13 9 -23z m338 5 c0 -5
-4 -9 -10 -9 -5 0 -10 7 -10 16 0 8 5 12 10 9 6 -3 10 -10 10 -16z m60 0 c0
-5 -4 -9 -10 -9 -5 0 -10 7 -10 16 0 8 5 12 10 9 6 -3 10 -10 10 -16z m925
-43 c3 -47 -8 -58 -34 -33 -10 10 -15 8 -26 -6 -9 -12 -15 -14 -20 -7 -4 6 -1
17 5 25 6 8 8 20 4 27 -4 7 2 4 14 -6 22 -19 22 -19 22 5 0 24 19 53 28 44 2
-2 5 -24 7 -49z m-1100 -25 c-7 -23 7 -39 37 -43 24 -3 25 -5 13 -21 -11 -16
-16 -17 -34 -5 -12 7 -24 23 -27 35 -3 11 -14 23 -23 26 -18 4 -34 54 -24 70
8 14 64 -45 58 -62z m555 30 c0 -5 9 -7 20 -4 11 3 35 2 54 -1 l35 -7 -31 -31
c-24 -24 -32 -28 -39 -17 -6 11 -11 11 -21 1 -9 -9 -9 -12 4 -12 13 0 15 -8
11 -42 -7 -63 -9 -66 -45 -70 -26 -2 -36 -11 -52 -41 -11 -20 -23 -34 -28 -29
-11 11 11 73 33 93 13 11 15 19 8 26 -16 16 -2 33 27 33 24 0 24 1 9 16 -9 9
-14 23 -11 31 3 8 6 26 6 39 0 13 5 24 10 24 6 0 10 -4 10 -9z m660 -6 c0 -8
-4 -15 -10 -15 -5 0 -10 7 -10 15 0 8 5 15 10 15 6 0 10 -7 10 -15z m-1486
-10 c4 -11 -2 -15 -24 -15 -46 0 -38 20 11 29 4 0 9 -6 13 -14z m987 -38 c-12
-30 -29 -43 -42 -30 -7 7 -2 23 12 47 18 30 24 35 31 23 4 -9 4 -26 -1 -40z
m-572 34 c8 -5 12 -18 9 -29 -6 -20 -4 -20 41 -6 25 7 47 14 48 14 2 0 14 -23
27 -50 l24 -50 -21 -15 c-28 -19 -47 -19 -76 1 -19 14 -25 14 -32 3 -6 -10
-11 -11 -19 -3 -8 8 -7 14 5 24 8 7 15 18 15 24 0 6 -5 4 -10 -4 -15 -23 -32
2 -37 54 -5 46 0 53 26 37z m-229 -26 c12 -13 26 -22 31 -20 13 9 22 -16 10
-28 -16 -16 -14 -37 4 -37 8 0 15 -9 15 -20 0 -10 9 -24 20 -30 32 -17 20 -50
-19 -50 -9 0 -41 66 -41 84 0 7 -12 18 -26 25 -21 9 -25 17 -22 36 3 14 -1 30
-8 36 -14 11 -10 29 5 29 4 0 18 -11 31 -25z m1430 4 c0 -6 -4 -7 -10 -4 -5 3
-10 11 -10 16 0 6 5 7 10 4 6 -3 10 -11 10 -16z m-1707 -9 c3 -13 -1 -21 -15
-26 -25 -8 -29 -3 -21 24 7 27 29 29 36 2z m209 -5 c3 -14 2 -25 -2 -25 -4 0
-10 11 -12 25 -3 14 -2 25 2 25 4 0 10 -11 12 -25z m-332 -1 c0 -8 -4 -12 -10
-9 -5 3 -10 10 -10 16 0 5 5 9 10 9 6 0 10 -7 10 -16z m905 -9 c0 -10 -5 -20
-11 -22 -13 -4 -27 24 -18 38 9 15 29 4 29 -16z m-683 -3 c-16 -5 -15 -24 3
-58 8 -16 15 -23 15 -16 0 8 6 12 13 9 6 -2 11 -11 9 -19 -1 -9 5 -18 13 -22
14 -5 12 -13 -12 -56 -17 -30 -35 -50 -45 -50 -10 0 -18 -6 -18 -14 0 -8 -5
-18 -11 -21 -15 -10 -49 24 -46 46 4 25 17 37 17 16 0 -26 36 -21 45 6 4 12 6
29 6 38 -1 9 5 22 14 29 13 11 11 17 -15 50 -17 21 -30 41 -30 45 0 13 34 34
44 27 6 -3 5 -7 -2 -10z m603 -1 c-3 -6 -11 -11 -16 -11 -5 0 -4 6 3 14 14 16
24 13 13 -3z m-742 -20 c17 -19 40 -31 60 -33 24 -2 33 -8 35 -26 2 -13 -3
-25 -13 -28 -21 -9 -65 12 -65 30 0 7 -8 16 -18 18 -10 3 -29 19 -41 37 -21
28 -21 31 -4 31 10 0 31 -13 46 -29z m4554 7 c19 -39 21 -52 14 -90 -5 -29 -9
-35 -20 -28 -10 5 -16 31 -19 74 -4 68 6 85 25 44z m-2817 -3 c0 -8 -4 -15
-10 -15 -5 0 -10 7 -10 15 0 8 5 15 10 15 6 0 10 -7 10 -15z m454 -16 c-8 -14
-34 -10 -34 5 0 9 7 12 20 9 11 -3 17 -9 14 -14z m486 1 c0 -15 -7 -20 -25
-20 -29 0 -30 3 -9 24 21 22 34 20 34 -4z m-1900 -15 c26 -28 26 -31 -13 -40
-26 -7 -27 -5 -27 29 0 43 8 45 40 11z m375 15 c3 -5 -3 -10 -14 -10 -12 0
-21 5 -21 10 0 6 6 10 14 10 8 0 18 -4 21 -10z m445 -25 c0 -16 -6 -25 -15
-25 -15 0 -21 31 -8 43 13 14 23 6 23 -18z m-1340 -45 c0 -24 -11 -31 -25 -16
-8 7 -11 24 -7 41 5 26 6 27 18 10 8 -10 14 -26 14 -35z m880 36 c0 -3 -4 -8
-10 -11 -5 -3 -10 -1 -10 4 0 6 5 11 10 11 6 0 10 -2 10 -4z m-280 -45 c0 -12
-29 -35 -36 -28 -11 10 5 37 21 37 8 0 15 -4 15 -9z m544 -25 c8 -19 24 -41
35 -48 12 -7 21 -16 21 -21 0 -4 -4 -5 -10 -2 -5 3 -10 2 -10 -4 0 -5 -9 -12
-19 -16 -11 -3 -18 -12 -15 -20 10 -24 -14 -25 -30 0 -11 17 -12 26 -5 31 8 4
9 25 5 60 -7 62 6 72 28 20z m474 14 c2 -6 12 -10 23 -10 10 0 19 -4 19 -10 0
-15 -17 -12 -45 6 -13 9 -37 15 -52 14 -40 -3 -45 -1 -37 11 8 13 87 3 92 -11z
m-1413 0 c3 -5 1 -10 -4 -10 -6 0 -11 5 -11 10 0 6 2 10 4 10 3 0 8 -4 11 -10z
m655 -25 c0 -20 8 -47 17 -61 14 -22 14 -27 2 -35 -8 -5 -15 -4 -17 2 -2 5
-17 16 -33 24 -34 18 -36 37 -8 76 27 39 39 37 39 -6z m567 -25 c-25 -41 -37
-15 -15 32 12 25 13 26 20 7 4 -11 2 -28 -5 -39z m-1950 44 c-3 -3 -12 -4 -19
-1 -8 3 -5 6 6 6 11 1 17 -2 13 -5z m1543 -9 c0 -8 -4 -15 -9 -15 -13 0 -22
16 -14 24 11 11 23 6 23 -9z m230 -47 c0 -10 -4 -18 -9 -18 -10 0 -21 47 -13
55 8 7 22 -17 22 -37z m-684 5 c7 -10 14 -28 14 -40 0 -13 5 -23 10 -23 13 0
13 -47 0 -55 -20 -12 -50 15 -50 46 0 28 -2 31 -25 25 -30 -8 -34 10 -4 19 14
5 19 13 16 26 -7 25 21 26 39 2z m214 -20 c0 -22 -5 -33 -14 -33 -8 0 -16 -5
-18 -12 -2 -6 -12 6 -22 27 -20 42 -13 54 30 51 20 -1 24 -6 24 -33z m866 29
c11 -6 18 -46 15 -78 -1 -7 -9 -14 -20 -17 -22 -5 -35 -57 -15 -57 8 0 14 -8
14 -17 0 -9 7 -24 15 -33 12 -13 13 -23 5 -41 -10 -24 -10 -23 -5 3 4 20 0 30
-14 38 -30 16 -44 12 -38 -10 3 -11 1 -20 -5 -20 -6 0 -8 -9 -5 -21 3 -13 1
-19 -6 -16 -7 2 -11 12 -9 23 2 16 -4 19 -45 19 l-48 0 0 37 c0 22 5 38 11 38
7 0 11 11 10 24 0 13 -4 22 -8 20 -9 -6 -14 5 -22 48 -6 31 -3 39 13 47 16 9
25 7 46 -11 24 -22 24 -25 11 -50 l-15 -28 35 0 c31 0 34 2 24 19 -7 13 -7 22
0 26 5 3 10 16 10 29 0 34 19 46 46 28z m-2116 -49 c0 -12 -3 -13 -13 -4 -8 6
-17 8 -20 4 -4 -3 -7 1 -7 9 0 11 6 14 20 11 11 -3 20 -12 20 -20z m2208 9 c2
-7 -2 -10 -12 -6 -9 3 -16 11 -16 16 0 13 23 5 28 -10z m-1608 -26 c0 -29 -19
-44 -31 -25 -16 25 -10 49 11 49 15 0 20 -7 20 -24z m1264 -11 c-12 -56 -29
-62 -37 -12 -6 39 -4 43 23 43 18 0 20 -4 14 -31z m-439 16 c3 -5 1 -12 -5
-16 -5 -3 -10 1 -10 9 0 18 6 21 15 7z m356 -44 c-13 -13 -26 -3 -16 12 3 6
11 8 17 5 6 -4 6 -10 -1 -17z m-1571 -28 c0 -12 -7 -19 -20 -19 -14 0 -20 7
-20 23 0 13 3 27 7 30 10 11 33 -13 33 -34z m2207 25 c-3 -3 -12 -4 -19 -1 -8
3 -5 6 6 6 11 1 17 -2 13 -5z m-1447 -24 c11 -11 20 -30 20 -41 0 -17 3 -19
13 -10 16 13 37 -4 37 -31 0 -10 4 -18 9 -18 5 0 7 -10 3 -22 -4 -18 -2 -20
17 -15 14 3 21 1 18 -6 -2 -7 -21 -12 -41 -12 -40 -1 -56 15 -56 56 0 18 -6
13 -30 -24 -16 -26 -27 -53 -24 -60 6 -17 -57 -22 -68 -5 -12 20 -9 31 7 24 9
-3 25 0 35 7 27 16 28 107 3 133 -16 15 -16 17 2 30 25 18 31 18 55 -6z m265
10 c3 -5 0 -10 -8 -10 -19 0 -28 -23 -17 -40 6 -9 0 -22 -16 -37 -14 -13 -26
-23 -28 -23 -1 0 -1 13 2 29 2 16 0 37 -6 47 -7 12 -6 21 2 30 13 16 62 18 71
4z m528 -47 c17 -59 10 -88 -14 -58 -8 9 -22 25 -31 36 -22 23 -14 79 11 79
11 0 22 -18 34 -57z m1035 35 c7 -7 11 -21 11 -32 -1 -17 -2 -18 -6 -3 -2 9
-11 17 -19 17 -8 0 -14 7 -14 15 0 18 12 19 28 3z m-2205 -28 c-3 -11 -9 -20
-14 -20 -10 0 -11 12 -3 34 9 22 23 10 17 -14z m1297 -7 c0 -2 -7 -11 -15 -19
-9 -10 -13 -24 -9 -40 4 -17 2 -24 -9 -24 -32 0 -37 65 -6 73 12 3 18 10 14
16 -3 7 0 8 9 5 9 -3 16 -8 16 -11z m-1064 -25 c3 -5 1 -14 -4 -21 -5 -7 -8
-19 -6 -27 11 -48 9 -54 -24 -61 -30 -6 -32 -5 -26 15 7 22 7 25 5 41 -1 10
-8 12 -64 18 -19 2 -22 7 -19 25 4 18 9 22 26 18 12 -3 27 -2 34 3 15 9 70 2
78 -11z m1465 -15 c-8 -15 -10 -15 -11 -2 0 17 10 32 18 25 2 -3 -1 -13 -7
-23z m-853 -1 c2 -7 -3 -12 -12 -12 -9 0 -16 7 -16 16 0 17 22 14 28 -4z
m-138 -7 c0 -8 6 -15 14 -15 7 0 19 -7 26 -15 9 -11 22 -14 42 -10 l28 7 0
-56 c0 -54 -13 -77 -32 -58 -13 13 -48 3 -48 -14 0 -21 -27 -17 -33 6 -3 11
-16 24 -30 29 -14 5 -28 15 -33 22 -5 9 -2 10 9 6 21 -8 29 4 12 20 -7 7 -17
8 -26 2 -19 -12 -29 -11 -29 1 0 6 5 10 10 10 19 0 52 38 45 50 -8 13 11 30
33 30 6 0 12 -7 12 -15z m-880 -4 c0 -5 -7 -11 -15 -15 -9 -3 -15 0 -15 9 0 8
7 15 15 15 8 0 15 -4 15 -9z m113 2 c2 -5 1 -19 -3 -33 l-7 -25 -10 25 c-11
26 -8 40 7 40 5 0 11 -3 13 -7z m105 -16 c2 -10 -3 -17 -11 -17 -16 0 -30 24
-19 34 10 10 27 1 30 -17z m1657 -50 c-5 -23 -14 -39 -26 -42 -25 -8 -40 2
-32 21 4 10 -2 17 -16 21 -11 3 -21 10 -21 15 0 5 3 7 8 5 4 -3 23 3 42 12 43
22 53 14 45 -32z m-1395 22 c0 -5 -7 -9 -15 -9 -15 0 -20 12 -9 23 8 8 24 -1
24 -14z m-610 -44 c0 -23 -2 -24 -20 -13 -19 12 -19 14 -3 26 22 16 23 16 23
-13z m-230 -21 c0 -8 -4 -12 -10 -9 -5 3 -10 13 -10 21 0 8 5 12 10 9 6 -3 10
-13 10 -21z m90 -4 c0 -11 -4 -21 -9 -24 -13 -8 -34 21 -27 39 7 20 36 8 36
-15z m1360 -12 c0 -5 -4 -8 -10 -8 -5 0 -10 10 -10 23 0 18 2 19 10 7 5 -8 10
-18 10 -22z m142 -13 c3 -30 1 -35 -16 -35 -10 0 -16 3 -13 7 4 3 2 12 -4 19
-14 17 -5 44 15 44 8 0 15 -13 18 -35z m-1435 -1 c-9 -9 -28 6 -21 18 4 6 10
6 17 -1 6 -6 8 -13 4 -17z m-286 -17 c-8 -8 -11 -7 -11 4 0 20 13 34 18 19 3
-7 -1 -17 -7 -23z m2059 14 c14 -28 12 -52 -6 -72 -13 -15 -14 -23 -3 -52 10
-30 10 -40 -5 -71 -9 -19 -21 -38 -26 -41 -12 -8 -13 66 -1 116 4 20 5 57 1
83 -4 25 -5 48 -2 51 11 11 32 4 42 -14z m-840 -1 c0 -5 -4 -10 -10 -10 -5 0
-10 5 -10 10 0 6 5 10 10 10 6 0 10 -4 10 -10z m576 -22 c4 -18 6 -52 5 -75
-1 -32 5 -48 24 -69 27 -29 24 -49 -6 -41 -11 3 -19 0 -19 -5 0 -6 -6 -6 -14
2 -11 8 -14 27 -11 65 2 30 1 66 -3 82 -9 33 -4 73 8 73 5 0 12 -15 16 -32z
m-206 6 c0 -2 -7 -4 -15 -4 -8 0 -15 4 -15 10 0 5 7 7 15 4 8 -4 15 -8 15 -10z
m54 0 c17 -7 22 -34 6 -34 -5 0 -10 6 -10 14 0 8 -6 17 -12 19 -7 3 -10 6 -6
6 3 1 13 -2 22 -5z m1201 -22 c-8 -8 -25 10 -19 20 4 6 9 5 15 -3 4 -7 6 -15
4 -17z m-2615 -2 c0 -20 32 -44 44 -33 3 3 6 -3 6 -15 0 -13 -6 -22 -15 -22
-7 0 -18 -8 -24 -17 -9 -17 -11 -17 -25 2 -18 23 -21 65 -5 65 8 0 9 4 0 13
-6 8 -8 17 -4 20 12 13 23 7 23 -13z m1640 16 c0 -2 -9 -6 -20 -9 -11 -3 -18
-1 -14 4 5 9 34 13 34 5z m-399 -18 c0 -10 2 -10 6 0 6 14 33 16 33 2 0 -5
-14 -17 -30 -25 -33 -17 -32 -35 3 -35 17 0 19 -2 8 -9 -11 -7 -9 -10 10 -14
15 -3 8 -5 -18 -6 -33 -1 -45 4 -57 21 -8 12 -13 25 -10 30 3 4 0 8 -5 8 -6 0
-11 7 -11 16 0 8 4 13 8 10 4 -2 14 -1 22 5 21 13 40 11 41 -3z m697 -13 c3
-14 -71 -12 -75 2 -3 7 9 10 34 9 21 -1 39 -6 41 -11z m-931 -17 c-3 -8 -6 -5
-6 6 -1 11 2 17 5 13 3 -3 4 -12 1 -19z m93 -8 c-9 -6 -19 -5 -25 1 -6 6 -5
13 5 19 9 6 19 5 25 -1 6 -6 5 -13 -5 -19z m628 8 c4 -21 -27 -32 -45 -16 -13
10 -12 14 3 25 22 16 38 12 42 -9z m-1458 -8 c0 -5 -4 -10 -10 -10 -5 0 -10 5
-10 10 0 6 5 10 10 10 6 0 10 -4 10 -10z m460 -9 c0 -11 5 -23 10 -26 15 -9
12 -45 -5 -51 -17 -7 -20 -30 -5 -39 6 -4 17 -2 24 4 10 8 17 7 27 -5 11 -13
10 -17 -2 -25 -19 -12 -76 -11 -84 2 -4 5 -17 9 -28 7 -24 -3 -28 2 -20 32 6
24 10 25 29 5 9 -8 20 -15 26 -15 6 0 1 8 -11 19 -16 14 -19 24 -13 41 8 21 9
21 25 5 19 -19 22 -13 6 16 -11 22 -6 49 11 49 5 0 10 -9 10 -19z m1280 -11
c0 -5 -7 -10 -16 -10 -8 0 -12 5 -9 10 3 6 10 10 16 10 5 0 9 -4 9 -10z m-41
-4 c-12 -10 -60 -16 -54 -6 3 5 18 10 32 10 15 0 24 -2 22 -4z m-1539 -16 c0
-5 -4 -10 -9 -10 -6 0 -13 5 -16 10 -3 6 1 10 9 10 9 0 16 -4 16 -10z m100
-36 c0 -7 -7 -15 -16 -18 -12 -5 -11 -10 11 -30 l27 -25 -22 -31 c-27 -38 -44
-39 -37 -2 9 43 -3 82 -24 82 -21 0 -26 29 -8 47 13 13 69 -5 69 -23z m-395
-27 c-5 -39 -9 -41 -29 -18 -17 18 -17 21 0 46 20 31 35 17 29 -28z m1195 43
c0 -5 -2 -10 -4 -10 -3 0 -8 5 -11 10 -3 6 -1 10 4 10 6 0 11 -4 11 -10z m563
-44 c-5 -33 -4 -35 36 -47 22 -7 41 -16 41 -21 0 -5 -5 -6 -11 -3 -15 10 -69
-15 -69 -31 0 -8 -5 -14 -10 -14 -17 0 -23 29 -12 54 7 17 7 27 0 34 -11 11
-18 60 -11 75 2 4 13 3 23 -3 15 -8 18 -17 13 -44z m-537 -14 c-9 -8 -26 10
-26 26 1 15 2 15 15 -2 8 -11 13 -21 11 -24z m-898 1 c5 -18 -23 -16 -39 3
-11 14 -10 15 11 12 13 -1 25 -9 28 -15z m-695 -8 c8 -18 -11 -31 -25 -17 -11
11 -3 32 12 32 4 0 10 -7 13 -15z m1334 -7 c-3 -8 -6 -5 -6 6 -1 11 2 17 5 13
3 -3 4 -12 1 -19z m354 -31 c-13 -13 -15 11 -4 40 7 16 8 15 11 -6 2 -13 -1
-28 -7 -34z m1043 38 c-4 -8 -10 -12 -15 -9 -14 8 -10 24 6 24 9 0 12 -6 9
-15z m-1664 -5 c0 -5 -5 -10 -11 -10 -5 0 -7 5 -4 10 3 6 8 10 11 10 2 0 4 -4
4 -10z m-700 -30 c0 -5 -7 -10 -16 -10 -8 0 -12 5 -9 10 3 6 10 10 16 10 5 0
9 -4 9 -10z m1280 -4 c0 -3 -4 -8 -10 -11 -5 -3 -10 -1 -10 4 0 6 5 11 10 11
6 0 10 -2 10 -4z m-770 -16 c0 -5 -4 -10 -10 -10 -5 0 -11 -10 -11 -22 -1 -18
-2 -19 -6 -5 -3 10 -2 25 1 33 6 16 26 19 26 4z m330 -16 c12 -32 13 -94 1
-94 -8 0 -23 31 -36 78 -6 22 -25 31 -25 12 0 -5 -4 -10 -10 -10 -5 0 -10 9
-10 20 0 16 7 20 35 20 29 0 37 -5 45 -26z m-767 -14 c12 0 28 5 34 11 16 16
42 4 53 -26 7 -18 17 -25 35 -25 15 0 24 -4 21 -9 -6 -10 -56 -2 -56 9 0 14
-69 21 -90 10 -11 -6 -20 -20 -20 -30 0 -11 -7 -20 -15 -20 -11 0 -15 8 -13
26 2 15 -3 29 -9 31 -7 3 -13 -3 -13 -12 0 -13 -4 -14 -22 -4 l-23 12 23 10
c12 6 22 19 22 30 0 18 1 18 25 3 13 -9 35 -16 48 -16z m1227 16 c0 -3 -4 -8
-10 -11 -5 -3 -10 -1 -10 4 0 6 5 11 10 11 6 0 10 -2 10 -4z m-1602 -35 c3 -8
-1 -12 -9 -9 -7 2 -15 10 -17 17 -3 8 1 12 9 9 7 -2 15 -10 17 -17z m1292 0
c0 -14 -18 -23 -30 -16 -6 4 -8 11 -5 16 8 12 35 12 35 0z m345 -20 c-3 -12
-11 -21 -16 -21 -14 0 -11 38 4 43 17 6 20 2 12 -22z m497 -33 c-15 -15 -26
-4 -18 18 5 13 9 15 18 6 9 -9 9 -15 0 -24z m93 22 c3 -5 -1 -10 -10 -10 -9 0
-13 5 -10 10 3 6 8 10 10 10 2 0 7 -4 10 -10z m-1518 -22 c-3 -8 -6 -5 -6 6
-1 11 2 17 5 13 3 -3 4 -12 1 -19z m211 3 c3 -8 -1 -12 -9 -9 -7 2 -15 10 -17
17 -3 8 1 12 9 9 7 -2 15 -10 17 -17z m-625 -8 c-7 -2 -19 -2 -25 0 -7 3 -2 5
12 5 14 0 19 -2 13 -5z m117 -27 c0 -15 -7 -26 -19 -29 -17 -4 -18 -2 -11 19
5 13 7 24 4 24 -3 0 -2 5 1 10 10 16 25 1 25 -24z m1897 12 c-3 -8 -6 -5 -6 6
-1 11 2 17 5 13 3 -3 4 -12 1 -19z m-1519 -35 c-16 -15 -18 -15 -24 0 -3 9 -3
25 0 34 6 15 8 15 24 0 15 -16 15 -18 0 -34z m1244 2 c3 -27 1 -32 -9 -23 -14
11 -17 40 -6 51 10 11 11 9 15 -28z m228 14 c0 -6 -4 -7 -10 -4 -5 3 -10 11
-10 16 0 6 5 7 10 4 6 -3 10 -11 10 -16z m-550 1 c0 -5 7 -10 15 -10 8 0 15
-8 15 -18 0 -25 -68 -46 -87 -26 -12 11 -11 17 3 39 16 24 54 35 54 15z
m-1630 -50 c9 -16 8 -20 -5 -20 -8 0 -15 9 -15 20 0 11 2 20 5 20 2 0 9 -9 15
-20z m2750 10 c0 -5 -4 -10 -10 -10 -5 0 -10 5 -10 10 0 6 5 10 10 10 6 0 10
-4 10 -10z m-3043 -52 c-2 -13 -4 -5 -4 17 -1 22 1 32 4 23 2 -10 2 -28 0 -40z
m3028 14 c-3 -3 -11 0 -18 7 -9 10 -8 11 6 5 10 -3 15 -9 12 -12z m-2374 -23
c9 -18 7 -25 -10 -43 -17 -16 -25 -18 -39 -10 -23 15 -28 44 -7 44 14 0 15 3
5 15 -11 13 -8 15 13 15 17 0 31 -8 38 -21z m999 -10 c0 -20 -15 -26 -24 -10
-8 13 4 42 15 35 5 -3 9 -14 9 -25z m-669 11 c16 0 9 -38 -8 -45 -23 -8 -61
34 -41 47 7 4 19 6 26 3 8 -3 18 -5 23 -5z m754 0 c3 -5 -1 -10 -9 -10 -9 0
-16 5 -16 10 0 6 4 10 9 10 6 0 13 -4 16 -10z m-665 -45 c0 -8 -7 -15 -15 -15
-16 0 -20 12 -8 23 11 12 23 8 23 -8z m290 -6 c0 -5 -4 -9 -10 -9 -5 0 -10 7
-10 16 0 8 5 12 10 9 6 -3 10 -10 10 -16z m-93 -55 c-10 -10 -37 16 -37 34 0
13 4 12 22 -5 12 -13 19 -25 15 -29z m-1169 0 c-5 -28 -28 -29 -28 -1 0 13 3
27 7 31 10 10 25 -10 21 -30z m1582 7 c0 -6 -4 -13 -10 -16 -5 -3 -10 1 -10 9
0 9 5 16 10 16 6 0 10 -4 10 -9z m510 -26 c0 -8 -4 -17 -10 -20 -6 -4 -10 5
-10 20 0 15 4 24 10 20 6 -3 10 -12 10 -20z m-1760 0 c0 -8 -4 -15 -10 -15 -5
0 -10 7 -10 15 0 8 5 15 10 15 6 0 10 -7 10 -15z m280 -72 c0 -22 -30 -15 -39
10 -5 12 -6 26 -4 30 7 11 43 -23 43 -40z m283 41 c9 -9 -4 -34 -18 -34 -14 0
-27 25 -18 34 4 3 12 6 18 6 6 0 14 -3 18 -6z m-803 -25 c0 -6 9 -9 19 -6 26
6 45 -7 38 -27 -9 -22 -22 -20 -51 8 -28 25 -32 36 -16 36 6 0 10 -5 10 -11z
m950 1 c0 -5 7 -10 15 -10 8 0 15 5 15 10 0 15 29 12 46 -4 12 -13 9 -15 -23
-18 -26 -2 -38 -8 -38 -18 0 -8 -4 -18 -8 -21 -5 -3 -1 -13 7 -22 9 -9 12 -18
7 -22 -5 -3 -12 4 -16 15 -3 11 -10 20 -15 20 -13 0 -20 30 -14 56 6 23 24 34
24 14z m337 -12 c-3 -8 -6 -5 -6 6 -1 11 2 17 5 13 3 -3 4 -12 1 -19z m-892 2
c3 -6 -1 -13 -10 -16 -19 -8 -30 0 -20 15 8 14 22 14 30 1z m185 -21 c0 -5 -4
-9 -10 -9 -5 0 -10 7 -10 16 0 8 5 12 10 9 6 -3 10 -10 10 -16z m165 1 c-3 -5
-10 -10 -16 -10 -5 0 -9 5 -9 10 0 6 7 10 16 10 8 0 12 -4 9 -10z m465 -2 c0
-5 -3 -8 -7 -7 -4 0 -10 -9 -15 -20 -11 -31 -28 -25 -28 10 0 27 3 30 25 27
14 -2 25 -6 25 -10z m-970 -8 c0 -5 -4 -10 -10 -10 -5 0 -10 5 -10 10 0 6 5
10 10 10 6 0 10 -4 10 -10z m1061 -8 c17 4 25 -40 10 -55 -9 -9 -13 -6 -17 11
-4 12 -10 22 -15 22 -5 0 -9 10 -9 23 0 15 3 18 9 9 4 -7 14 -12 22 -10z m209
9 c6 0 10 -8 10 -17 0 -12 -6 -15 -22 -11 -26 7 -58 -8 -58 -28 0 -8 -9 -15
-20 -15 -23 0 -27 28 -5 36 8 3 17 13 19 22 5 15 28 19 76 13z m-1050 -31 c0
-5 -5 -10 -11 -10 -5 0 -7 5 -4 10 3 6 8 10 11 10 2 0 4 -4 4 -10z m1300 -54
c0 -2 -7 -6 -15 -10 -8 -3 -15 -1 -15 4 0 6 7 10 15 10 8 0 15 -2 15 -4z
m-1225 -16 c3 -5 -1 -10 -9 -10 -9 0 -16 5 -16 10 0 6 4 10 9 10 6 0 13 -4 16
-10z m-706 -42 c12 -15 11 -18 -3 -18 -10 0 -16 8 -16 22 0 12 1 19 3 17 1 -2
9 -12 16 -21z m1584 -1 c26 -10 14 -22 -22 -25 -20 -1 -31 2 -31 11 0 17 22
39 29 29 3 -5 14 -11 24 -15z m-853 -8 c0 -18 -2 -19 -15 -9 -8 7 -15 16 -15
21 0 5 7 9 15 9 9 0 15 -9 15 -21z m120 -60 c0 -5 -9 -9 -20 -9 -12 0 -20 -7
-21 -17 -1 -16 -2 -16 -6 0 -3 11 3 24 14 32 18 14 33 11 33 -6z m-683 -51
c-3 -8 -6 -5 -6 6 -1 11 2 17 5 13 3 -3 4 -12 1 -19z m8074 -4 c11 -14 10 -15
-11 -12 -13 1 -25 9 -28 16 -5 17 23 15 39 -4z m-6843 -16 c-3 -7 -11 -13 -18
-13 -7 0 -15 6 -17 13 -3 7 4 12 17 12 13 0 20 -5 18 -12z m359 6 c-3 -3 -12
-4 -19 -1 -8 3 -5 6 6 6 11 1 17 -2 13 -5z m6413 -30 c0 -11 -21 -24 -40 -24
-5 0 -14 10 -21 21 -8 17 -8 23 2 29 15 10 59 -9 59 -26z m-7752 -28 c-1 -14
-6 -22 -10 -20 -12 7 -10 44 2 44 5 0 9 -11 8 -24z m196 9 c3 -8 1 -25 -4 -37
-10 -26 -11 -25 -15 20 -3 33 8 44 19 17z m-524 -20 c0 -9 -6 -12 -15 -9 -8 4
-15 10 -15 15 0 5 7 9 15 9 8 0 15 -7 15 -15z m1024 -10 c7 -29 -19 -74 -43
-75 -12 0 -12 3 -3 12 7 7 12 22 12 34 0 52 23 72 34 29z m6964 3 c19 -19 14
-35 -12 -40 -31 -6 -56 8 -56 32 0 15 7 20 28 20 15 0 33 -5 40 -12z m-7348
-40 c0 -16 -3 -19 -11 -11 -6 6 -8 16 -5 22 11 17 16 13 16 -11z m7250 -33
c16 -19 6 -45 -18 -45 -23 0 -42 19 -42 42 0 22 42 25 60 3z m-6735 -9 c17
-12 21 -12 32 3 11 15 12 15 13 -1 0 -27 -3 -33 -17 -30 -7 2 -14 -5 -14 -15
-1 -10 -3 -25 -4 -33 -1 -8 -3 -23 -4 -32 -2 -30 -18 -20 -26 15 -10 51 -14
107 -6 107 4 0 16 -6 26 -14z m3669 -2 c6 -16 29 -16 99 1 33 9 57 -8 57 -40
0 -27 -14 -40 -60 -53 -19 -6 -50 -15 -68 -21 -28 -8 -36 -7 -54 11 -19 19
-22 19 -62 4 -65 -25 -80 -22 -72 15 3 17 6 38 6 46 0 18 76 52 116 53 20 0
34 -6 38 -16z m-4394 -37 c0 -14 -19 -37 -31 -37 -3 0 -4 11 -1 25 4 25 32 36
32 12z m240 8 c0 -2 -9 -9 -20 -15 -16 -9 -18 -8 -14 5 5 13 34 22 34 10z
m-83 -11 c-3 -3 -12 -4 -19 -1 -8 3 -5 6 6 6 11 1 17 -2 13 -5z m-632 -14 c3
-5 1 -10 -4 -10 -6 0 -11 5 -11 10 0 6 2 10 4 10 3 0 8 -4 11 -10z m1648 -51
c-6 -6 -17 -8 -24 -4 -9 6 -7 11 6 22 11 7 13 13 6 13 -7 0 -9 5 -5 12 5 8 11
5 17 -10 7 -16 7 -26 0 -33z m6205 39 c19 -19 14 -37 -13 -50 -22 -10 -29 -9
-47 9 -12 13 -18 28 -15 37 8 19 57 22 75 4z m-7753 -8 c7 -12 -12 -40 -26
-40 -5 0 -9 11 -9 25 0 25 23 35 35 15z m885 -57 c0 -13 -4 -23 -10 -23 -5 0
-10 17 -10 38 0 27 3 33 10 22 5 -8 10 -25 10 -37z m3673 -3 c7 -28 -77 -113
-115 -116 -16 -1 -28 1 -28 5 0 14 57 88 85 109 35 27 51 28 58 2z m2697 -81
c0 -50 -3 -60 -22 -70 -33 -18 -60 20 -56 80 2 37 8 48 28 58 37 18 50 1 50
-68z m391 71 c23 -13 25 -55 3 -64 -22 -8 -44 11 -44 39 0 35 10 41 41 25z
m-262 -16 c20 -14 22 -23 18 -58 -8 -58 -52 -81 -79 -42 -10 14 -10 100 -1
109 11 12 38 8 62 -9z m-6976 -11 c-7 -2 -19 -2 -25 0 -7 3 -2 5 12 5 14 0 19
-2 13 -5z m127 -9 c0 -8 -5 -12 -10 -9 -6 4 -8 11 -5 16 9 14 15 11 15 -7z
m6596 -41 c7 -48 0 -69 -29 -87 -24 -15 -37 7 -37 65 0 48 13 69 41 69 13 0
20 -12 25 -47z m-2397 -14 c-25 -16 -32 -9 -13 12 12 13 20 16 22 9 3 -7 -2
-16 -9 -21z m2279 -32 c2 -45 0 -59 -13 -63 -24 -10 -37 9 -39 54 -1 40 18 75
38 69 6 -2 12 -29 14 -60z m544 46 c24 -21 23 -40 -3 -53 -25 -14 -49 2 -49
35 0 38 21 46 52 18z m-6994 -13 c3 -7 0 -10 -6 -6 -6 3 -12 0 -15 -6 -2 -7
-8 -10 -12 -6 -11 10 3 40 17 36 6 -2 14 -10 16 -18z m6900 -89 c-2 -9 -12
-16 -23 -16 -23 0 -42 43 -31 71 7 17 10 17 32 -10 14 -15 24 -36 22 -45z
m-6878 18 c0 -14 -17 -10 -23 5 -4 10 -1 13 9 9 7 -3 14 -9 14 -14z m324 -5
c9 -3 16 -15 16 -26 0 -27 -30 -20 -41 10 -9 23 -3 27 25 16z m751 -4 c-28
-12 -37 -12 -30 0 3 6 16 10 28 9 21 0 21 -1 2 -9z m-1665 -80 c0 -5 -4 -10
-10 -10 -5 0 -10 5 -10 10 0 6 5 10 10 10 6 0 10 -4 10 -10z m837 -22 c-3 -8
-6 -5 -6 6 -1 11 2 17 5 13 3 -3 4 -12 1 -19z m331 -65 c-18 -4 -25 -23 -10
-23 5 0 8 -10 7 -22 -1 -16 -9 -24 -25 -26 -20 -3 -22 0 -17 20 4 12 7 31 7
41 0 12 8 17 28 16 16 -1 20 -3 10 -6z m4292 -113 c0 -5 -4 -10 -10 -10 -5 0
-10 5 -10 10 0 6 5 10 10 10 6 0 10 -4 10 -10z m518 -47 c3 -45 0 -53 -24 -72
-24 -19 -29 -20 -42 -7 -30 30 14 145 51 133 7 -2 13 -26 15 -54z m-116 -14
c-3 -48 -20 -79 -44 -79 -46 0 -42 106 4 127 31 15 42 1 40 -48z m230 21 c-4
-42 -23 -79 -44 -86 -33 -10 -43 10 -28 58 16 49 26 59 55 56 15 -2 19 -10 17
-28z m111 16 c12 -32 -56 -117 -76 -97 -11 11 0 44 29 89 16 25 39 29 47 8z
m61 -27 c-9 -10 -21 -19 -26 -19 -10 0 10 42 26 52 19 12 19 -12 0 -33z
m-1594 7 c0 -24 -16 -36 -51 -36 -28 0 -23 27 9 43 38 21 42 20 42 -7z m50 -2
c0 -8 5 -14 10 -14 6 0 10 6 10 14 0 8 5 18 10 21 6 4 10 -8 10 -28 0 -31 -3
-34 -29 -34 -24 0 -30 5 -33 29 -3 15 -2 30 0 33 8 8 22 -5 22 -21z m110 -9
c0 -7 -6 -18 -14 -24 -11 -9 -15 -7 -19 10 -8 32 2 52 19 38 8 -6 14 -17 14
-24z m44 3 c14 -34 14 -34 32 20 5 14 7 15 14 2 4 -8 11 -30 15 -48 5 -25 3
-33 -11 -39 -10 -3 -22 0 -28 8 -6 8 -20 14 -31 14 -15 0 -20 7 -21 30 -1 54
10 59 30 13z m211 -26 c8 -7 15 -19 15 -27 0 -18 -27 -20 -33 -2 -3 9 -7 9
-19 0 -20 -17 -28 -7 -28 32 0 41 9 49 31 28 10 -10 25 -24 34 -31z m655 7 c0
-37 -37 -74 -57 -57 -27 22 12 103 43 91 8 -3 14 -18 14 -34z m-1257 24 c-7
-2 -19 -2 -25 0 -7 3 -2 5 12 5 14 0 19 -2 13 -5z m502 -29 c7 -41 -9 -70 -25
-44 -6 8 -8 21 -5 28 3 8 5 22 5 33 0 33 17 21 25 -17z m-3675 6 c0 -5 -5 -10
-11 -10 -5 0 -7 5 -4 10 3 6 8 10 11 10 2 0 4 -4 4 -10z m3860 -19 c0 -42 -9
-61 -30 -61 -28 0 -32 14 -15 54 19 44 45 48 45 7z m-600 -322 c0 -17 4 -39
10 -49 13 -25 3 -48 -29 -65 -28 -14 -65 -5 -41 10 6 4 9 14 6 22 -8 21 12 43
31 36 14 -5 15 0 10 35 -3 23 -1 42 4 42 5 0 9 -14 9 -31z m-2350 -1514 c-7
-8 -17 -12 -23 -8 -6 4 -3 9 9 14 27 11 28 11 14 -6z"/>
<path d="M7470 10051 c0 -12 6 -21 16 -21 9 0 14 7 12 17 -5 25 -28 28 -28 4z"/>
<path d="M7346 9983 c-12 -31 -6 -101 9 -107 22 -8 41 2 54 30 22 49 11 75
-36 86 -14 4 -24 0 -27 -9z"/>
<path d="M7440 9685 c0 -28 21 -33 41 -9 10 13 10 17 -2 25 -25 15 -39 10 -39
-16z"/>
<path d="M7577 8964 c-8 -8 1 -24 14 -24 5 0 9 7 9 15 0 15 -12 20 -23 9z"/>
<path d="M7575 8879 c-4 -12 -2 -26 3 -31 17 -17 42 -1 42 27 0 32 -35 35 -45
4z"/>
<path d="M7883 8400 c-13 -5 -24 -15 -24 -22 -2 -24 3 -43 14 -50 8 -5 7 -18
-3 -46 -22 -68 5 -95 49 -48 31 33 27 92 -7 89 -24 -3 -23 6 6 39 8 10 12 24
9 33 -7 17 -13 18 -44 5z"/>
<path d="M7970 8341 c0 -11 5 -23 10 -26 6 -3 10 3 10 14 0 11 -4 23 -10 26
-5 3 -10 -3 -10 -14z"/>
<path d="M7745 8330 c-21 -23 -12 -39 13 -24 19 12 29 44 14 44 -5 0 -17 -9
-27 -20z"/>
<path d="M7504 8275 c-35 -33 -64 -66 -64 -72 0 -7 17 -15 38 -19 20 -4 43
-11 49 -16 7 -6 23 -8 35 -5 27 8 48 -9 48 -37 0 -28 18 -46 47 -46 32 0 40
26 44 150 l4 104 -69 1 -69 0 -63 -60z"/>
<path d="M7741 8256 c-28 -29 -31 -37 -22 -55 15 -28 27 -27 56 7 26 29 34 82
12 82 -7 0 -28 -15 -46 -34z"/>
<path d="M7980 8215 c0 -8 5 -15 10 -15 6 0 10 7 10 15 0 8 -4 15 -10 15 -5 0
-10 -7 -10 -15z"/>
<path d="M7908 8197 c-8 -6 -27 -29 -43 -49 -30 -41 -52 -48 -61 -20 -19 58
-17 57 -58 22 -30 -27 -36 -39 -34 -64 2 -22 8 -31 21 -30 19 2 23 -21 6 -32
-29 -18 -45 -104 -19 -104 5 0 33 26 64 57 31 32 56 52 56 46 0 -7 -4 -15 -10
-18 -19 -12 -10 -33 18 -44 27 -11 31 -9 70 30 41 41 51 70 33 98 -8 12 -12
12 -24 2 -28 -22 -30 8 -3 40 29 34 32 51 13 68 -10 8 -18 7 -29 -2z m-46
-159 c-7 -7 -12 -8 -12 -2 0 14 12 26 19 19 2 -3 -1 -11 -7 -17z"/>
<path d="M8120 8190 c0 -6 8 -22 17 -36 9 -14 22 -47 28 -72 14 -52 31 -65 40
-29 8 29 -8 93 -30 125 -16 22 -55 31 -55 12z"/>
<path d="M7550 8105 c0 -19 11 -19 36 0 18 14 18 14 -8 15 -18 0 -28 -5 -28
-15z"/>
<path d="M7744 7911 c-34 -40 -40 -54 -36 -80 6 -42 32 -41 71 5 27 30 32 43
29 77 -2 22 -7 42 -13 43 -5 1 -28 -19 -51 -45z"/>
<path d="M8013 7764 c-3 -8 1 -23 10 -32 15 -14 17 -14 23 1 8 21 -1 47 -16
47 -6 0 -13 -7 -17 -16z"/>
<path d="M7931 7711 c-12 -16 -21 -34 -21 -39 0 -15 28 -23 56 -16 18 5 24 13
24 33 0 26 -16 51 -31 51 -4 0 -17 -13 -28 -29z"/>
<path d="M7573 7704 c-7 -18 6 -45 26 -52 9 -3 11 6 9 29 -3 36 -24 50 -35 23z"/>
<path d="M7750 7649 c-37 -39 -38 -56 -5 -71 44 -20 80 32 59 86 -9 23 -20 20
-54 -15z"/>
<path d="M3940 10069 c0 -5 5 -7 10 -4 6 3 10 8 10 11 0 2 -4 4 -10 4 -5 0
-10 -5 -10 -11z"/>
<path d="M3825 9860 c-3 -5 -1 -10 4 -10 6 0 11 5 11 10 0 6 -2 10 -4 10 -3 0
-8 -4 -11 -10z"/>
<path d="M4573 9763 c9 -2 23 -2 30 0 6 3 -1 5 -18 5 -16 0 -22 -2 -12 -5z"/>
<path d="M4500 9750 c0 -5 6 -10 14 -10 8 0 18 5 21 10 3 6 -3 10 -14 10 -12
0 -21 -4 -21 -10z"/>
<path d="M4297 9633 c-12 -11 -8 -23 8 -23 8 0 15 7 15 15 0 16 -12 20 -23 8z"/>
<path d="M3430 9725 c-16 -19 -9 -49 13 -53 13 -3 17 3 17 27 0 35 -13 47 -30
26z"/>
<path d="M3123 9313 c-36 -7 -27 -31 13 -39 39 -7 58 4 48 29 -6 17 -17 18
-61 10z"/>
<path d="M3672 8400 c0 -14 2 -19 5 -12 2 6 2 18 0 25 -3 6 -5 1 -5 -13z"/>
<path d="M3656 8363 c-11 -11 -6 -23 9 -23 8 0 15 4 15 9 0 13 -16 22 -24 14z"/>
<path d="M2510 7178 c-133 -38 -206 -192 -151 -320 60 -141 211 -201 339 -135
114 60 158 188 106 312 -23 56 -94 118 -155 138 -62 19 -87 20 -139 5z m164
-63 c79 -54 107 -102 108 -186 0 -48 -22 -99 -42 -99 -17 0 -50 39 -50 58 0
11 -12 22 -32 30 -46 16 -193 165 -185 186 9 23 44 35 108 35 44 1 64 -4 93
-24z m-184 -113 c28 -27 50 -54 50 -60 0 -7 -17 -12 -42 -12 -44 0 -78 -14
-66 -26 4 -3 42 -6 85 -5 75 1 79 0 114 -33 38 -35 69 -75 69 -88 0 -17 -62
-38 -110 -38 -62 0 -105 17 -148 60 -56 56 -75 168 -41 232 15 28 36 21 89
-30z"/>
<path d="M2545 6550 c-3 -6 1 -13 10 -16 19 -8 30 0 20 15 -8 14 -22 14 -30 1z"/>
<path d="M1080 5680 c0 -5 7 -10 15 -10 8 0 15 5 15 10 0 6 -7 10 -15 10 -8 0
-15 -4 -15 -10z"/>
<path d="M1490 5526 c0 -9 5 -16 10 -16 6 0 10 4 10 9 0 6 -4 13 -10 16 -5 3
-10 -1 -10 -9z"/>
<path d="M2311 5374 c0 -11 3 -14 6 -6 3 7 2 16 -1 19 -3 4 -6 -2 -5 -13z"/>
<path d="M2250 5370 c0 -5 5 -10 10 -10 6 0 10 5 10 10 0 6 -4 10 -10 10 -5 0
-10 -4 -10 -10z"/>
<path d="M1608 5233 c6 -2 18 -2 25 0 6 3 1 5 -13 5 -14 0 -19 -2 -12 -5z"/>
<path d="M6494 5905 c-11 -27 4 -45 36 -45 23 0 30 4 30 20 0 32 -55 54 -66
25z"/>
<path d="M6176 5901 c-17 -6 -17 -8 -4 -14 20 -7 241 4 232 12 -8 9 -205 10
-228 2z"/>
<path d="M6180 5745 c-15 -18 -3 -82 17 -90 19 -7 84 4 101 18 6 5 12 18 12
28 0 25 14 24 32 -2 10 -16 19 -20 37 -14 21 6 22 8 5 26 -9 10 -26 19 -36 19
-11 0 -27 4 -36 9 -33 16 -120 21 -132 6z"/>
<path d="M5397 5723 c-8 -12 3 -82 13 -88 5 -3 29 -2 54 1 37 5 49 12 60 34 7
16 10 34 6 41 -10 15 -125 25 -133 12z"/>
<path d="M5293 5690 c-18 -11 -33 -28 -33 -38 0 -10 -5 -23 -12 -30 -20 -20
17 -15 63 9 28 14 39 25 35 35 -3 9 -6 22 -6 30 0 19 -9 18 -47 -6z"/>
<path d="M6086 4855 c-8 -8 -27 -15 -43 -15 -15 0 -50 -9 -78 -20 l-50 -19 40
-2 c72 -2 115 2 138 15 41 22 67 41 67 48 0 14 -58 8 -74 -7z"/>
<path d="M5550 4849 c0 -8 14 -22 30 -31 22 -13 30 -25 30 -45 0 -48 10 -68
44 -91 43 -29 106 -41 106 -20 0 8 -11 20 -24 27 -26 14 -44 73 -19 64 7 -3
13 -1 13 5 0 6 -6 12 -12 15 -7 2 12 7 42 12 53 7 80 19 80 35 0 16 -67 30
-177 37 -93 5 -113 4 -113 -8z"/>
<path d="M8195 4340 c-7 -12 2 -30 16 -30 12 0 12 27 0 35 -5 3 -12 1 -16 -5z"/>
<path d="M8516 4331 c-4 -7 -5 -15 -2 -18 9 -9 19 4 14 18 -4 11 -6 11 -12 0z"/>
<path d="M8614 4295 c-4 -9 -2 -21 5 -28 13 -13 18 -9 23 17 4 24 -20 33 -28
11z"/>
<path d="M8100 4290 c0 -5 5 -10 10 -10 6 0 10 5 10 10 0 6 -4 10 -10 10 -5 0
-10 -4 -10 -10z"/>
<path d="M7417 4253 c-4 -3 -21 -8 -37 -10 -17 -1 -52 -14 -78 -27 -26 -13
-64 -26 -84 -30 -28 -5 -38 -12 -38 -26 0 -27 33 -33 85 -16 25 9 56 16 70 16
13 0 36 5 51 10 23 9 31 7 50 -11 22 -21 26 -21 84 -9 33 7 60 14 60 15 0 1
-9 23 -20 49 -22 48 -40 60 -40 26 0 -11 -6 -20 -14 -20 -8 0 -18 9 -21 20 -6
20 -53 29 -68 13z"/>
<path d="M7645 4210 c-3 -5 1 -10 10 -10 9 0 13 5 10 10 -3 6 -8 10 -10 10 -2
0 -7 -4 -10 -10z"/>
<path d="M7920 4135 c0 -8 5 -15 10 -15 6 0 10 7 10 15 0 8 -4 15 -10 15 -5 0
-10 -7 -10 -15z"/>
<path d="M7560 4025 c-10 -13 -9 -15 9 -15 11 0 21 4 21 9 0 18 -18 21 -30 6z"/>
<path d="M7424 4019 c-3 -6 0 -15 7 -20 22 -14 29 -11 29 11 0 21 -24 27 -36
9z"/>
<path d="M6718 4004 c-24 -12 -27 -19 -21 -47 3 -17 10 -36 14 -41 5 -6 9 -24
9 -42 0 -32 20 -63 78 -121 26 -27 41 -33 73 -33 40 0 41 1 34 28 -3 15 -13
34 -22 44 -9 10 -13 30 -10 55 2 25 -1 44 -12 56 -17 20 -16 21 36 53 16 11
16 13 -12 24 -16 7 -45 18 -63 26 -41 18 -70 17 -104 -2z"/>
<path d="M8620 4000 c0 -6 7 -13 15 -16 8 -4 12 -11 9 -16 -8 -12 15 -58 29
-58 5 0 6 8 2 18 -4 9 -9 28 -10 42 -1 14 -3 28 -4 33 -2 11 -41 8 -41 -3z"/>
<path d="M7715 3980 c3 -5 10 -10 16 -10 5 0 9 5 9 10 0 6 -7 10 -16 10 -8 0
-12 -4 -9 -10z"/>
<path d="M6453 3898 c-21 -13 -36 -32 -42 -56 -9 -31 -8 -37 10 -50 11 -7 27
-22 37 -32 17 -18 41 -23 95 -21 31 1 38 30 12 51 -8 7 -17 28 -20 49 -9 50
-26 81 -44 80 -9 0 -31 -10 -48 -21z"/>
<path d="M5362 3861 c-12 -25 -22 -55 -22 -65 0 -11 -18 -37 -41 -58 -48 -46
-46 -68 6 -68 27 0 44 8 67 30 16 17 33 30 38 30 15 0 23 20 25 63 3 49 -11
94 -34 106 -13 7 -21 -1 -39 -38z"/>
<path d="M8315 3849 c-8 -12 23 -49 42 -49 7 0 13 8 13 18 0 33 -40 56 -55 31z"/>
<path d="M8665 3839 c-4 -6 0 -18 9 -27 15 -15 16 -15 16 5 0 25 -15 38 -25
22z"/>
<path d="M6178 3819 c-27 -10 -48 -51 -48 -95 0 -19 5 -24 27 -24 15 0 42 5
60 12 27 10 33 17 29 33 -3 11 -6 35 -6 53 0 35 -12 39 -62 21z"/>
<path d="M8425 3820 c-10 -16 4 -30 31 -30 26 0 31 9 12 28 -15 15 -35 16 -43
2z"/>
<path d="M8332 3738 c3 -7 13 -15 22 -16 12 -3 17 1 14 10 -3 7 -13 15 -22 16
-12 3 -17 -1 -14 -10z"/>
<path d="M8342 3628 c6 -18 28 -21 28 -4 0 9 -7 16 -16 16 -9 0 -14 -5 -12
-12z"/>
<path d="M8016 3613 c-11 -11 -6 -40 8 -52 17 -14 39 9 30 32 -6 17 -29 29
-38 20z"/>
<path d="M6305 3579 c-4 -6 -5 -13 -2 -16 7 -7 27 6 27 18 0 12 -17 12 -25 -2z"/>
<path d="M8110 3576 c0 -19 27 -39 44 -33 24 9 7 47 -20 47 -14 0 -24 -6 -24
-14z"/>
<path d="M6425 3570 c-3 -5 -1 -10 4 -10 6 0 11 5 11 10 0 6 -2 10 -4 10 -3 0
-8 -4 -11 -10z"/>
<path d="M8024 3507 c-7 -20 3 -37 21 -37 23 0 26 16 5 35 -18 16 -20 16 -26
2z"/>
<path d="M8046 3381 c-9 -14 4 -41 20 -41 8 0 14 6 14 14 0 18 -26 40 -34 27z"/>
<path d="M7544 3356 c-9 -23 0 -51 16 -51 10 0 15 10 15 29 0 32 -21 47 -31
22z"/>
<path d="M7716 3341 c-7 -10 3 -41 13 -41 17 1 33 20 28 34 -7 17 -32 22 -41
7z"/>
<path d="M7812 3328 c-8 -8 -9 -15 -1 -25 17 -20 48 -17 44 5 -2 9 -4 20 -4
25 -1 11 -26 8 -39 -5z"/>
<path d="M7936 3291 c-7 -10 22 -37 30 -28 9 8 -3 37 -15 37 -5 0 -12 -4 -15
-9z"/>
<path d="M7710 3249 c-13 -24 2 -49 30 -49 26 0 33 30 14 51 -22 24 -31 24
-44 -2z"/>
<path d="M7200 3220 c0 -28 4 -40 14 -40 18 0 30 33 21 60 -12 37 -35 23 -35
-20z"/>
<path d="M7520 3191 c0 -12 5 -21 10 -21 6 0 10 6 10 14 0 8 -4 18 -10 21 -5
3 -10 -3 -10 -14z"/>
<path d="M6865 3151 c-7 -23 4 -71 16 -71 12 0 12 77 0 85 -5 3 -12 -3 -16
-14z"/>
<path d="M7277 3134 c-4 -4 -7 -18 -7 -31 0 -28 23 -27 28 1 4 20 -11 40 -21
30z"/>
<path d="M7720 3105 c0 -20 36 -39 43 -22 7 20 -4 37 -24 37 -10 0 -19 -7 -19
-15z"/>
<path d="M7886 3103 c-3 -10 -8 -36 -12 -57 l-7 -39 36 27 c39 30 49 48 41 71
-8 21 -51 19 -58 -2z"/>
<path d="M7164 3097 c-3 -9 -3 -25 1 -34 6 -16 8 -15 16 6 6 16 6 28 0 34 -7
7 -12 5 -17 -6z"/>
<path d="M6547 3074 c-10 -10 -8 -56 3 -74 14 -23 32 2 28 40 -3 33 -17 48
-31 34z"/>
<path d="M7473 3063 c-15 -6 -17 -53 -3 -53 6 0 13 6 16 14 8 22 1 44 -13 39z"/>
<path d="M7334 3026 c-9 -23 0 -51 16 -51 10 0 15 10 15 29 0 32 -21 47 -31
22z"/>
<path d="M6930 3004 c0 -14 5 -24 11 -22 6 2 10 7 10 11 -1 4 -1 14 -1 22 0 8
-4 15 -10 15 -5 0 -10 -12 -10 -26z"/>
<path d="M6240 2986 c0 -19 4 -38 10 -41 12 -7 24 39 16 60 -10 27 -26 16 -26
-19z"/>
<path d="M6824 2995 c-8 -20 3 -48 16 -40 13 8 13 55 0 55 -6 0 -13 -7 -16
-15z"/>
<path d="M5946 2964 c-3 -9 -6 -31 -6 -50 0 -43 26 -46 35 -4 11 49 -13 95
-29 54z"/>
<path d="M7560 2929 c-44 -52 -44 -55 -8 -73 14 -7 26 -26 31 -49 7 -31 12
-36 23 -26 8 6 14 23 14 38 0 34 10 48 43 60 31 12 36 31 7 31 -11 0 -26 12
-35 29 -8 17 -19 32 -24 35 -4 3 -27 -17 -51 -45z"/>
<path d="M5009 2958 c-1 -7 -2 -17 -4 -23 -1 -5 -3 -18 -3 -28 -1 -10 -13 -22
-27 -27 -19 -7 -25 -17 -25 -40 0 -27 3 -30 30 -30 24 0 33 6 40 26 13 33 13
134 0 134 -5 0 -11 -6 -11 -12z"/>
<path d="M7107 2963 c-4 -3 -7 -18 -7 -32 1 -25 1 -25 15 -7 23 30 15 63 -8
39z"/>
<path d="M7730 2955 c0 -10 7 -15 18 -13 21 4 19 22 -2 26 -10 2 -16 -3 -16
-13z"/>
<path d="M5186 2948 c-3 -7 -7 -26 -11 -41 -3 -16 -18 -39 -32 -51 -16 -14
-23 -27 -19 -35 6 -9 13 -7 29 9 19 21 21 21 30 5 9 -17 10 -17 21 3 13 24 9
122 -5 122 -5 0 -11 -6 -13 -12z"/>
<path d="M6603 2934 c-3 -8 -1 -20 6 -27 8 -8 11 -4 11 16 0 30 -7 35 -17 11z"/>
<path d="M6984 2926 c-7 -20 2 -46 16 -46 13 0 13 47 0 55 -6 3 -13 -1 -16 -9z"/>
<path d="M7397 2923 c-4 -3 -7 -17 -7 -30 0 -35 34 -26 38 10 3 26 -14 37 -31
20z"/>
<path d="M6511 2894 c0 -11 3 -14 6 -6 3 7 2 16 -1 19 -3 4 -6 -2 -5 -13z"/>
<path d="M4820 2872 c0 -34 11 -52 32 -52 16 0 19 6 16 33 -2 24 -8 33 -25 35
-17 3 -23 -2 -23 -16z"/>
<path d="M6190 2845 c0 -19 4 -35 9 -35 13 0 23 34 15 54 -11 28 -24 18 -24
-19z"/>
<path d="M7178 2850 l-27 -28 24 -16 c14 -9 25 -26 25 -37 0 -33 33 -19 42 19
5 18 17 38 28 45 26 16 25 21 -5 35 -39 18 -57 14 -87 -18z"/>
<path d="M5903 2843 c-15 -6 -17 -53 -3 -53 6 0 13 6 16 14 8 22 1 44 -13 39z"/>
<path d="M5988 2844 c-5 -4 -8 -19 -8 -33 0 -18 3 -22 11 -14 6 6 9 21 7 33
-1 12 -6 18 -10 14z"/>
<path d="M6660 2816 c0 -14 5 -26 10 -26 6 0 10 9 10 19 0 11 -4 23 -10 26 -6
4 -10 -5 -10 -19z"/>
<path d="M7034 2826 c-8 -22 3 -33 18 -18 9 9 9 15 0 24 -9 9 -13 7 -18 -6z"/>
<path d="M4780 2781 c-7 -15 -6 -24 7 -36 15 -15 17 -15 25 -1 5 10 5 24 -2
36 -13 25 -17 25 -30 1z"/>
<path d="M4856 2775 c5 -51 46 -68 57 -24 3 12 -2 24 -16 34 -31 22 -45 18
-41 -10z"/>
<path d="M6845 2769 c-40 -36 -44 -56 -12 -68 26 -10 47 -4 47 14 0 6 9 20 20
30 25 23 25 32 0 45 -16 8 -26 5 -55 -21z"/>
<path d="M6340 2750 c0 -16 5 -30 10 -30 6 0 10 14 10 30 0 17 -4 30 -10 30
-5 0 -10 -13 -10 -30z"/>
<path d="M6440 2759 c0 -11 5 -17 10 -14 6 3 10 13 10 21 0 8 -4 14 -10 14 -5
0 -10 -9 -10 -21z"/>
<path d="M5822 2713 c-8 -14 -9 -24 -2 -28 12 -7 24 18 18 37 -3 8 -9 5 -16
-9z"/>
<path d="M6025 2710 c-3 -5 -1 -10 4 -10 6 0 11 5 11 10 0 6 -2 10 -4 10 -3 0
-8 -4 -11 -10z"/>
<path d="M6126 2711 c-4 -7 -5 -15 -2 -18 9 -9 19 4 14 18 -4 11 -6 11 -12 0z"/>
<path d="M5712 2699 c2 -6 8 -10 13 -10 5 0 11 4 13 10 2 6 -4 11 -13 11 -9 0
-15 -5 -13 -11z"/>
<path d="M6501 2670 l-33 -28 29 -16 c29 -14 31 -14 57 13 17 18 24 34 20 44
-9 25 -34 20 -73 -13z"/>
<path d="M6374 2655 c-9 -22 1 -29 15 -11 8 10 9 16 1 21 -5 3 -13 -1 -16 -10z"/>
<path d="M4908 2647 c-31 -12 -38 -48 -14 -72 11 -12 19 -9 47 15 34 28 34 29
14 48 -16 16 -25 17 -47 9z"/>
<path d="M5088 2632 c-32 -19 -33 -22 -14 -47 12 -17 18 -18 40 -7 29 13 33
29 14 55 -12 15 -15 15 -40 -1z"/>
<path d="M6198 2622 c-16 -9 -28 -20 -28 -25 0 -4 -6 -5 -12 -1 -7 4 -2 -5 11
-19 31 -34 45 -34 70 2 40 56 17 80 -41 43z"/>
<path d="M5872 2598 l-42 -19 27 -34 27 -34 35 35 c35 34 35 34 16 53 -20 18
-21 18 -63 -1z"/>
<path d="M10740 2365 c0 -24 -6 -39 -20 -47 -30 -19 -25 -40 8 -36 26 3 27 6
30 61 2 35 -1 57 -8 57 -5 0 -10 -16 -10 -35z"/>
<path d="M10643 2230 c-13 -5 -23 -17 -23 -25 0 -12 8 -15 33 -13 24 2 33 8
35 26 4 24 -8 27 -45 12z"/>
<path d="M5136 2043 c-37 -53 -32 -66 5 -15 17 24 29 45 26 48 -3 3 -17 -12
-31 -33z"/>
<path d="M8856 1959 c-15 -28 -26 -55 -26 -60 0 -14 27 -11 44 6 15 15 36 20
36 8 0 -3 -15 -34 -34 -67 -19 -34 -48 -88 -66 -121 -35 -67 -105 -268 -115
-330 -7 -38 -64 -204 -107 -309 -19 -47 -46 -131 -53 -165 -9 -45 -19 -82 -37
-139 -23 -69 -17 -98 7 -36 9 21 20 46 25 54 9 13 19 34 44 90 3 8 24 42 46
75 66 100 119 198 131 239 6 22 37 83 69 136 32 53 61 106 64 118 4 12 40 63
80 114 40 51 87 122 106 156 38 71 71 103 100 95 11 -3 20 -1 20 5 0 14 -90
72 -112 72 -10 0 -29 10 -42 23 -35 35 -117 87 -137 87 -12 0 -27 -18 -43 -51z"/>
<path d="M5067 1923 c-4 -3 -7 -11 -7 -17 0 -6 5 -5 12 2 6 6 9 14 7 17 -3 3
-9 2 -12 -2z"/>
<path d="M5015 1786 c-9 -20 -18 -51 -20 -69 l-5 -32 14 30 c9 17 15 39 16 51
0 11 5 25 12 32 6 6 9 15 5 18 -4 4 -14 -10 -22 -30z"/>
<path d="M9250 1781 c0 -27 3 -31 28 -29 15 1 32 5 37 8 6 4 24 11 40 15 l30
8 -40 9 c-101 23 -95 23 -95 -11z"/>
<path d="M9680 1718 c0 -7 18 -24 40 -38 22 -13 40 -31 40 -40 0 -26 52 -71
70 -60 12 7 9 16 -16 52 -17 24 -46 51 -65 60 -19 9 -39 22 -46 27 -16 14 -23
14 -23 -1z"/>
<path d="M4942 1566 c-13 -37 -21 -70 -19 -72 8 -9 48 98 45 119 -2 15 -11 -1
-26 -47z"/>
<path d="M9747 1467 c-17 -26 -31 -66 -57 -157 -24 -86 -42 -125 -70 -155 -46
-48 -93 -105 -86 -105 6 0 -19 -32 -46 -59 -16 -16 -27 -47 -18 -53 9 -5 80
41 80 52 0 5 10 10 23 11 21 0 21 1 2 9 -14 6 -15 9 -5 10 8 0 28 14 44 30 16
17 37 30 47 30 12 0 16 5 13 15 -4 10 -2 13 8 10 14 -6 41 25 67 77 7 14 21
28 30 31 10 2 27 21 39 41 20 33 20 37 5 43 -9 4 -30 -1 -46 -11 -48 -27 -53
-9 -28 93 25 99 24 128 -2 88z"/>
<path d="M4899 1454 c-10 -28 -7 -40 9 -30 13 8 22 56 10 56 -5 0 -13 -12 -19
-26z"/>
<path d="M4880 1395 c0 -8 5 -15 10 -15 6 0 10 7 10 15 0 8 -4 15 -10 15 -5 0
-10 -7 -10 -15z"/>
<path d="M4871 1324 c0 -11 3 -14 6 -6 3 7 2 16 -1 19 -3 4 -6 -2 -5 -13z"/>
<path d="M4851 1254 c0 -11 3 -14 6 -6 3 7 2 16 -1 19 -3 4 -6 -2 -5 -13z"/>
<path d="M4400 1045 c0 -8 4 -15 10 -15 5 0 7 7 4 15 -4 8 -8 15 -10 15 -2 0
-4 -7 -4 -15z"/>
<path d="M3500 283 c-46 -18 -180 -126 -180 -146 0 -5 -10 -17 -22 -28 -14
-11 -18 -18 -10 -19 12 0 65 46 142 122 15 15 44 35 64 43 20 9 34 20 31 25
-3 6 -7 10 -8 9 -1 0 -9 -3 -17 -6z"/>
<path d="M10111 260 c-17 -17 -31 -37 -31 -45 0 -8 -3 -15 -8 -15 -4 0 -13 -9
-20 -21 -12 -19 -11 -20 9 -14 28 9 40 -10 32 -54 -4 -26 -3 -33 8 -29 8 3 15
13 17 24 2 10 7 28 12 39 5 11 11 38 13 60 3 22 8 50 12 63 10 31 -6 28 -44
-8z"/>
<path d="M3264 64 c-4 -10 -13 -26 -21 -36 -10 -11 -11 -18 -4 -23 6 -3 14 2
18 12 4 10 14 23 22 30 13 9 13 14 4 24 -10 10 -14 8 -19 -7z"/>
<path d="M10077 54 c-4 -4 -7 -17 -7 -28 1 -19 1 -20 11 -3 11 19 8 43 -4 31z"/>
</g>
</svg>
